<?xml version="1.0" encoding="UTF-8"?>
<!--Generator: Apple Native CoreSVG 232.5-->
<!DOCTYPE svg
PUBLIC "-//W3C//DTD SVG 1.1//EN"
       "http://www.w3.org/Graphics/SVG/1.1/DTD/svg11.dtd">
<svg version="1.1" xmlns="http://www.w3.org/2000/svg" xmlns:xlink="http://www.w3.org/1999/xlink" width="3300" height="2200">
 <!--glyph: "", point size: 100.0, font version: "19.2d2e1", template writer version: "128"-->
 <style>.monochrome-0 {}
.monochrome-1 {}
.monochrome-2 {}

.multicolor-0:systemGreenColor {}
.multicolor-1:white {}
.multicolor-2:systemGreenColor {}

.hierarchical-0:primary {}
.hierarchical-1:primary {}
.hierarchical-2:primary {}

.SFSymbolsPreview28CD41 {fill:#28CD41;opacity:1.0}
.SFSymbolsPreviewFFFFFF {fill:#FFFFFF;opacity:1.0}
.SFSymbolsPreviewNone {fill:none;opacity:1.0}
</style>
 <g id="Notes">
  <rect height="2200" id="artboard" style="fill:white;opacity:1" width="3300" x="0" y="0"/>
  <line style="fill:none;stroke:black;opacity:1;stroke-width:0.5;" x1="263" x2="3036" y1="292" y2="292"/>
  <text style="stroke:none;fill:black;font-family:sans-serif;font-size:13;font-weight:bold;" transform="matrix(1 0 0 1 263 322)">Weight/Scale Variations</text>
  <text style="stroke:none;fill:black;font-family:sans-serif;font-size:13;text-anchor:middle;" transform="matrix(1 0 0 1 559.711 322)">Ultralight</text>
  <text style="stroke:none;fill:black;font-family:sans-serif;font-size:13;text-anchor:middle;" transform="matrix(1 0 0 1 856.422 322)">Thin</text>
  <text style="stroke:none;fill:black;font-family:sans-serif;font-size:13;text-anchor:middle;" transform="matrix(1 0 0 1 1153.13 322)">Light</text>
  <text style="stroke:none;fill:black;font-family:sans-serif;font-size:13;text-anchor:middle;" transform="matrix(1 0 0 1 1449.84 322)">Regular</text>
  <text style="stroke:none;fill:black;font-family:sans-serif;font-size:13;text-anchor:middle;" transform="matrix(1 0 0 1 1746.56 322)">Medium</text>
  <text style="stroke:none;fill:black;font-family:sans-serif;font-size:13;text-anchor:middle;" transform="matrix(1 0 0 1 2043.27 322)">Semibold</text>
  <text style="stroke:none;fill:black;font-family:sans-serif;font-size:13;text-anchor:middle;" transform="matrix(1 0 0 1 2339.98 322)">Bold</text>
  <text style="stroke:none;fill:black;font-family:sans-serif;font-size:13;text-anchor:middle;" transform="matrix(1 0 0 1 2636.69 322)">Heavy</text>
  <text style="stroke:none;fill:black;font-family:sans-serif;font-size:13;text-anchor:middle;" transform="matrix(1 0 0 1 2933.4 322)">Black</text>
  <line style="fill:none;stroke:black;opacity:1;stroke-width:0.5;" x1="263" x2="3036" y1="1903" y2="1903"/>
  <g transform="matrix(0.2 0 0 0.2 263 1933)">
   <path d="m46.2402 4.15039c21.5332 0 39.4531-17.8711 39.4531-39.4043s-17.9688-39.4043-39.502-39.4043c-21.4844 0-39.3555 17.8711-39.3555 39.4043s17.9199 39.4043 39.4043 39.4043Zm0-7.42188c-17.7246 0-31.8848-14.209-31.8848-31.9824s14.1113-31.9824 31.8359-31.9824c17.7734 0 32.0312 14.209 32.0312 31.9824s-14.209 31.9824-31.9824 31.9824Zm-17.9688-31.9824c0 2.14844 1.51367 3.61328 3.75977 3.61328h10.498v10.5957c0 2.19727 1.46484 3.71094 3.61328 3.71094 2.24609 0 3.71094-1.51367 3.71094-3.71094v-10.5957h10.5957c2.19727 0 3.71094-1.46484 3.71094-3.61328 0-2.19727-1.51367-3.71094-3.71094-3.71094h-10.5957v-10.5469c0-2.24609-1.46484-3.75977-3.71094-3.75977-2.14844 0-3.61328 1.51367-3.61328 3.75977v10.5469h-10.498c-2.24609 0-3.75977 1.51367-3.75977 3.71094Z"/>
  </g>
  <g transform="matrix(0.2 0 0 0.2 281.506 1933)">
   <path d="m58.5449 14.5508c27.2461 0 49.8047-22.6074 49.8047-49.8047 0-27.2461-22.6074-49.8047-49.8535-49.8047-27.1973 0-49.7559 22.5586-49.7559 49.8047 0 27.1973 22.6074 49.8047 49.8047 49.8047Zm0-8.30078c-23.0469 0-41.4551-18.457-41.4551-41.5039s18.3594-41.5039 41.4062-41.5039 41.5527 18.457 41.5527 41.5039-18.457 41.5039-41.5039 41.5039Zm-22.6562-41.5039c0 2.39258 1.66016 4.00391 4.15039 4.00391h14.3555v14.4043c0 2.44141 1.66016 4.15039 4.05273 4.15039 2.44141 0 4.15039-1.66016 4.15039-4.15039v-14.4043h14.4043c2.44141 0 4.15039-1.61133 4.15039-4.00391 0-2.44141-1.70898-4.15039-4.15039-4.15039h-14.4043v-14.3555c0-2.49023-1.70898-4.19922-4.15039-4.19922-2.39258 0-4.05273 1.70898-4.05273 4.19922v14.3555h-14.3555c-2.49023 0-4.15039 1.70898-4.15039 4.15039Z"/>
  </g>
  <g transform="matrix(0.2 0 0 0.2 304.924 1933)">
   <path d="m74.8535 28.3203c34.8145 0 63.623-28.8086 63.623-63.5742 0-34.8145-28.8574-63.623-63.6719-63.623-34.7656 0-63.5254 28.8086-63.5254 63.623 0 34.7656 28.8086 63.5742 63.5742 63.5742Zm0-9.08203c-30.1758 0-54.4434-24.3164-54.4434-54.4922 0-30.2246 24.2188-54.4922 54.3945-54.4922 30.2246 0 54.541 24.2676 54.541 54.4922 0 30.1758-24.2676 54.4922-54.4922 54.4922Zm-28.8574-54.4922c0 2.58789 1.85547 4.39453 4.58984 4.39453h19.7266v19.7754c0 2.68555 1.85547 4.58984 4.44336 4.58984 2.68555 0 4.54102-1.85547 4.54102-4.58984v-19.7754h19.7754c2.68555 0 4.58984-1.80664 4.58984-4.39453 0-2.73438-1.85547-4.58984-4.58984-4.58984h-19.7754v-19.7266c0-2.73438-1.85547-4.63867-4.54102-4.63867-2.58789 0-4.44336 1.9043-4.44336 4.63867v19.7266h-19.7266c-2.73438 0-4.58984 1.85547-4.58984 4.58984Z"/>
  </g>
  <text style="stroke:none;fill:black;font-family:sans-serif;font-size:13;font-weight:bold;" transform="matrix(1 0 0 1 263 1953)">Design Variations</text>
  <text style="stroke:none;fill:black;font-family:sans-serif;font-size:13;" transform="matrix(1 0 0 1 263 1971)">Symbols are supported in up to nine weights and three scales.</text>
  <text style="stroke:none;fill:black;font-family:sans-serif;font-size:13;" transform="matrix(1 0 0 1 263 1989)">For optimal layout with text and other symbols, vertically align</text>
  <text style="stroke:none;fill:black;font-family:sans-serif;font-size:13;" transform="matrix(1 0 0 1 263 2007)">symbols with the adjacent text.</text>
  <line style="fill:none;stroke:#00AEEF;stroke-width:0.5;opacity:1.0;" x1="776" x2="776" y1="1919" y2="1933"/>
  <g transform="matrix(0.2 0 0 0.2 776 1933)">
   <path d="m16.5527 0.78125c2.58789 0 3.85742-0.976562 4.78516-3.71094l6.29883-17.2363h28.8086l6.29883 17.2363c0.927734 2.73438 2.19727 3.71094 4.73633 3.71094 2.58789 0 4.24805-1.5625 4.24805-4.00391 0-0.830078-0.146484-1.61133-0.537109-2.63672l-22.9004-60.9863c-1.12305-2.97852-3.125-4.49219-6.25-4.49219-3.02734 0-5.07812 1.46484-6.15234 4.44336l-22.9004 61.084c-0.390625 1.02539-0.537109 1.80664-0.537109 2.63672 0 2.44141 1.5625 3.95508 4.10156 3.95508Zm13.4766-28.3691 11.8652-32.8613h0.244141l11.8652 32.8613Z"/>
  </g>
  <line style="fill:none;stroke:#00AEEF;stroke-width:0.5;opacity:1.0;" x1="792.836" x2="792.836" y1="1919" y2="1933"/>
  <text style="stroke:none;fill:black;font-family:sans-serif;font-size:13;font-weight:bold;" transform="matrix(1 0 0 1 776 1953)">Margins</text>
  <text style="stroke:none;fill:black;font-family:sans-serif;font-size:13;" transform="matrix(1 0 0 1 776 1971)">Leading and trailing margins on the left and right side of each symbol</text>
  <text style="stroke:none;fill:black;font-family:sans-serif;font-size:13;" transform="matrix(1 0 0 1 776 1989)">can be adjusted by modifying the x-location of the margin guidelines.</text>
  <text style="stroke:none;fill:black;font-family:sans-serif;font-size:13;" transform="matrix(1 0 0 1 776 2007)">Modifications are automatically applied proportionally to all</text>
  <text style="stroke:none;fill:black;font-family:sans-serif;font-size:13;" transform="matrix(1 0 0 1 776 2025)">scales and weights.</text>
  <g transform="matrix(0.2 0 0 0.2 1289 1933)">
   <path d="m14.209 9.32617 8.49609 8.54492c4.29688 4.3457 9.22852 4.05273 13.8672-1.07422l53.4668-58.9355-4.83398-4.88281-53.0762 58.3984c-1.75781 2.00195-3.41797 2.49023-5.76172 0.146484l-5.85938-5.81055c-2.34375-2.29492-1.80664-4.00391 0.195312-5.81055l57.373-54.0039-4.88281-4.83398-57.959 54.4434c-4.93164 4.58984-5.32227 9.47266-1.02539 13.8184Zm32.0801-90.9668c-2.09961 2.05078-2.24609 4.93164-1.07422 6.88477 1.17188 1.80664 3.4668 2.97852 6.68945 2.14844 7.32422-1.70898 14.9414-2.00195 22.0703 2.68555l-2.92969 7.27539c-1.70898 4.15039-0.830078 7.08008 1.85547 9.81445l11.4746 11.5723c2.44141 2.44141 4.49219 2.53906 7.32422 2.05078l5.32227-0.976562 3.32031 3.36914-0.195312 2.7832c-0.195312 2.49023 0.439453 4.39453 2.88086 6.78711l3.80859 3.71094c2.39258 2.39258 5.46875 2.53906 7.8125 0.195312l14.5508-14.5996c2.34375-2.34375 2.24609-5.32227-0.146484-7.71484l-3.85742-3.80859c-2.39258-2.39258-4.24805-3.17383-6.64062-2.97852l-2.88086 0.244141-3.22266-3.17383 1.2207-5.61523c0.634766-2.83203-0.146484-5.0293-3.07617-7.95898l-10.9863-10.9375c-16.6992-16.6016-38.8672-16.2109-53.3203-1.75781Zm7.4707 1.85547c12.1582-8.88672 28.6133-7.37305 39.7461 3.75977l12.1582 12.0605c1.17188 1.17188 1.36719 2.09961 1.02539 3.80859l-1.61133 7.42188 7.51953 7.42188 4.93164-0.292969c1.26953-0.0488281 1.66016 0.0488281 2.63672 1.02539l2.88086 2.88086-12.207 12.207-2.88086-2.88086c-0.976562-0.976562-1.12305-1.36719-1.07422-2.68555l0.341797-4.88281-7.4707-7.42188-7.61719 1.26953c-1.61133 0.341797-2.34375 0.195312-3.56445-0.976562l-10.0098-10.0098c-1.26953-1.17188-1.41602-2.00195-0.634766-3.85742l4.39453-10.4492c-7.8125-7.27539-17.9688-10.4004-28.125-7.42188-0.78125 0.195312-1.07422-0.439453-0.439453-0.976562Z"/>
  </g>
  <text style="stroke:none;fill:black;font-family:sans-serif;font-size:13;font-weight:bold;" transform="matrix(1 0 0 1 1289 1953)">Exporting</text>
  <text style="stroke:none;fill:black;font-family:sans-serif;font-size:13;" transform="matrix(1 0 0 1 1289 1971)">Symbols should be outlined when exporting to ensure the</text>
  <text style="stroke:none;fill:black;font-family:sans-serif;font-size:13;" transform="matrix(1 0 0 1 1289 1989)">design is preserved when submitting to Xcode.</text>
  <text id="template-version" style="stroke:none;fill:black;font-family:sans-serif;font-size:13;text-anchor:end;" transform="matrix(1 0 0 1 3036 1933)">Template v.4.0</text>
  <text style="stroke:none;fill:black;font-family:sans-serif;font-size:13;text-anchor:end;" transform="matrix(1 0 0 1 3036 1951)">Requires Xcode 14 or greater</text>
  <text id="descriptive-name" style="stroke:none;fill:black;font-family:sans-serif;font-size:13;text-anchor:end;" transform="matrix(1 0 0 1 3036 1969)">Generated from visited.pin</text>
  <text style="stroke:none;fill:black;font-family:sans-serif;font-size:13;text-anchor:end;" transform="matrix(1 0 0 1 3036 1987)">Typeset at 100.0 points</text>
  <text style="stroke:none;fill:black;font-family:sans-serif;font-size:13;" transform="matrix(1 0 0 1 263 726)">Small</text>
  <text style="stroke:none;fill:black;font-family:sans-serif;font-size:13;" transform="matrix(1 0 0 1 263 1156)">Medium</text>
  <text style="stroke:none;fill:black;font-family:sans-serif;font-size:13;" transform="matrix(1 0 0 1 263 1586)">Large</text>
 </g>
 <g id="Guides">
  <g id="H-reference" style="fill:#27AAE1;stroke:none;" transform="matrix(1 0 0 1 339 696)">
   <path d="M0.993654 0L3.63775 0L29.3281-67.1323L30.0303-67.1323L30.0303-70.459L28.1226-70.459ZM11.6885-24.4799L46.9815-24.4799L46.2315-26.7285L12.4385-26.7285ZM55.1196 0L57.7637 0L30.6382-70.459L29.4326-70.459L29.4326-67.1323Z"/>
  </g>
  <line id="Baseline-S" style="fill:none;stroke:#27AAE1;opacity:1;stroke-width:0.5;" x1="263" x2="3036" y1="696" y2="696"/>
  <line id="Capline-S" style="fill:none;stroke:#27AAE1;opacity:1;stroke-width:0.5;" x1="263" x2="3036" y1="625.541" y2="625.541"/>
  <g id="H-reference" style="fill:#27AAE1;stroke:none;" transform="matrix(1 0 0 1 339 1126)">
   <path d="M0.993654 0L3.63775 0L29.3281-67.1323L30.0303-67.1323L30.0303-70.459L28.1226-70.459ZM11.6885-24.4799L46.9815-24.4799L46.2315-26.7285L12.4385-26.7285ZM55.1196 0L57.7637 0L30.6382-70.459L29.4326-70.459L29.4326-67.1323Z"/>
  </g>
  <line id="Baseline-M" style="fill:none;stroke:#27AAE1;opacity:1;stroke-width:0.5;" x1="263" x2="3036" y1="1126" y2="1126"/>
  <line id="Capline-M" style="fill:none;stroke:#27AAE1;opacity:1;stroke-width:0.5;" x1="263" x2="3036" y1="1055.54" y2="1055.54"/>
  <g id="H-reference" style="fill:#27AAE1;stroke:none;" transform="matrix(1 0 0 1 339 1556)">
   <path d="M0.993654 0L3.63775 0L29.3281-67.1323L30.0303-67.1323L30.0303-70.459L28.1226-70.459ZM11.6885-24.4799L46.9815-24.4799L46.2315-26.7285L12.4385-26.7285ZM55.1196 0L57.7637 0L30.6382-70.459L29.4326-70.459L29.4326-67.1323Z"/>
  </g>
  <line id="Baseline-L" style="fill:none;stroke:#27AAE1;opacity:1;stroke-width:0.5;" x1="263" x2="3036" y1="1556" y2="1556"/>
  <line id="Capline-L" style="fill:none;stroke:#27AAE1;opacity:1;stroke-width:0.5;" x1="263" x2="3036" y1="1485.54" y2="1485.54"/>
  <line id="left-margin-Ultralight-S" style="fill:none;stroke:#00AEEF;stroke-width:0.5;opacity:1.0;" x1="517.797" x2="517.797" y1="600.785" y2="720.121"/>
  <line id="right-margin-Ultralight-S" style="fill:none;stroke:#00AEEF;stroke-width:0.5;opacity:1.0;" x1="601.625" x2="601.625" y1="600.785" y2="720.121"/>
  <line id="left-margin-Regular-S" style="fill:none;stroke:#00AEEF;stroke-width:0.5;opacity:1.0;" x1="1405.73" x2="1405.73" y1="600.785" y2="720.121"/>
  <line id="right-margin-Regular-S" style="fill:none;stroke:#00AEEF;stroke-width:0.5;opacity:1.0;" x1="1493.96" x2="1493.96" y1="600.785" y2="720.121"/>
  <line id="left-margin-Black-S" style="fill:none;stroke:#00AEEF;stroke-width:0.5;opacity:1.0;" x1="2885.99" x2="2885.99" y1="600.785" y2="720.121"/>
  <line id="right-margin-Black-S" style="fill:none;stroke:#00AEEF;stroke-width:0.5;opacity:1.0;" x1="2980.81" x2="2980.81" y1="600.785" y2="720.121"/>
 </g>
 <g id="Symbols">
  <g id="Black-S" transform="matrix(1 0 0 1 2885.99 696)">
   <path class="SFSymbolsPreviewNone" d="M57.31-54.012C57.31-54.012 57.31-54.012 57.31-54.012L44.6-33.614L37.79-42.788C37.6-43.054 37.42-43.225 37.23-43.331C37.05-43.436 36.84-43.487 36.57-43.487C35.8-43.487 35.26-42.958 35.26-42.191C35.26-41.879 35.39-41.513 35.68-41.143L43.12-31.482C43.12-31.482 43.12-31.482 43.12-31.482C43.36-31.17 43.6-30.955 43.84-30.818C44.08-30.682 44.34-30.614 44.65-30.614C45.28-30.614 45.76-30.878 46.12-31.427C46.12-31.427 46.12-31.427 46.12-31.428L59.38-52.404L59.38-52.408C59.67-52.848 59.76-53.183 59.76-53.508C59.76-53.898 59.63-54.205 59.43-54.412C59.22-54.62 58.92-54.75 58.52-54.75C58.22-54.75 58.01-54.7 57.84-54.597C57.67-54.492 57.5-54.314 57.31-54.012ZM47.01-66.75C34.49-66.75 24.26-56.493 24.26-44C24.26-31.507 34.49-21.25 47.01-21.25C59.5-21.25 69.76-31.507 69.76-44C69.76-56.493 59.5-66.75 47.01-66.75ZM47.18 7.672C47.23 7.633 47.28 7.585 47.35 7.529C47.56 7.345 47.88 7.071 48.28 6.715C49.09 6.003 50.24 4.961 51.63 3.642C54.42 1.006 58.16-2.734 62-7.146C69.68-15.983 77.68-27.473 79.12-38.186L79.12-38.195L79.13-38.203C79.54-40.254 79.76-42.374 79.76-44.546C79.76-62.328 65.1-76.75 47.01-76.75C28.92-76.75 14.26-62.328 14.26-44.546C14.26-40.546 15-36.716 16.36-33.185L16.36-33.176L16.36-33.168C19.42-23.129 27.15-12.89 34.14-5.145C37.64-1.276 40.94 1.963 43.37 4.235C44.58 5.371 45.57 6.265 46.27 6.875C46.61 7.179 46.88 7.413 47.06 7.571C47.11 7.609 47.15 7.643 47.18 7.672ZM47.18 8L47.02 8.191L47.18 8.326L47.34 8.191L47.18 8Z"/>
   <path class="monochrome-0 multicolor-0:systemGreenColor hierarchical-0:primary SFSymbolsPreview28CD41" d="M13.76-44.546C13.76-62.612 28.65-77.25 47.01-77.25C65.37-77.25 80.26-62.612 80.26-44.546C80.26-42.343 80.04-40.193 79.62-38.111C78.15-27.242 70.06-15.659 62.37-6.818C58.52-2.39 54.77 1.361 51.97 4.006C50.58 5.328 49.42 6.374 48.61 7.089C48.21 7.447 47.89 7.722 47.68 7.908C47.57 8.001 47.48 8.072 47.43 8.119L47.37 8.173L47.35 8.19L47.34 8.191C47.34 8.191 47.34 8.191 47.18 8C47.02 8.191 47.02 8.191 47.02 8.191L47.02 8.19L47 8.176L46.95 8.13C46.9 8.09 46.83 8.029 46.74 7.95C46.55 7.791 46.28 7.556 45.94 7.25C45.24 6.637 44.24 5.74 43.02 4.6C40.59 2.321 37.28-0.928 33.77-4.81C26.77-12.564 18.98-22.868 15.89-33.014C14.51-36.6 13.76-40.487 13.76-44.546Z"/>
   <path class="monochrome-1 multicolor-1:white hierarchical-1:primary SFSymbolsPreviewFFFFFF" d="M23.76-44C23.76-56.769 34.21-67.25 47.01-67.25C59.78-67.25 70.26-56.769 70.26-44C70.26-31.231 59.78-20.75 47.01-20.75C34.21-20.75 23.76-31.231 23.76-44Z"/>
   <path class="monochrome-2 multicolor-2:systemGreenColor hierarchical-2:primary SFSymbolsPreview28CD41" d="M57.58-55.025C57.86-55.19 58.16-55.25 58.52-55.25C59.03-55.25 59.47-55.08 59.78-54.764C60.1-54.449 60.26-54.009 60.26-53.508C60.26-53.069 60.13-52.641 59.8-52.136C59.8-52.135 59.8-52.134 59.8-52.134L46.54-31.158L46.54-31.156C46.09-30.468 45.45-30.114 44.65-30.114C44.26-30.114 43.91-30.201 43.59-30.383C43.27-30.564 42.99-30.831 42.73-31.175L42.73-31.176L35.29-40.837C35.29-40.837 35.29-40.837 35.29-40.837C34.95-41.267 34.76-41.738 34.76-42.191C34.76-43.242 35.53-43.987 36.57-43.987C36.91-43.987 37.2-43.92 37.48-43.766C37.74-43.613 37.97-43.384 38.19-43.086L44.56-34.501L56.89-54.277C57.1-54.611 57.31-54.863 57.58-55.025Z"/>
  </g>
  <g id="Regular-S" transform="matrix(1 0 0 1 1405.73 696)">
   <path class="SFSymbolsPreviewNone" d="M54.57-54.012C54.57-54.012 54.57-54.012 54.57-54.012L41.86-33.614L35.05-42.788C34.86-43.054 34.68-43.225 34.49-43.331C34.31-43.436 34.1-43.487 33.83-43.487C33.06-43.487 32.52-42.958 32.52-42.191C32.52-41.879 32.65-41.513 32.94-41.143L40.38-31.482C40.38-31.482 40.38-31.482 40.38-31.482C40.62-31.17 40.86-30.955 41.1-30.818C41.34-30.682 41.6-30.614 41.91-30.614C42.54-30.614 43.02-30.878 43.38-31.427C43.38-31.427 43.38-31.427 43.38-31.428L56.64-52.404L56.64-52.408C56.93-52.848 57.02-53.183 57.02-53.508C57.02-53.898 56.89-54.205 56.69-54.412C56.48-54.62 56.18-54.75 55.78-54.75C55.48-54.75 55.27-54.7 55.1-54.597C54.93-54.492 54.76-54.314 54.57-54.012ZM44.27-66.75C31.75-66.75 21.52-56.493 21.52-44C21.52-31.507 31.75-21.25 44.27-21.25C56.76-21.25 67.02-31.507 67.02-44C67.02-56.493 56.76-66.75 44.27-66.75ZM44.44 7.672C44.49 7.633 44.54 7.585 44.61 7.529C44.82 7.345 45.14 7.071 45.54 6.715C46.35 6.003 47.5 4.961 48.89 3.642C51.68 1.006 55.42-2.734 59.26-7.146C66.94-15.983 74.94-27.473 76.38-38.186L76.38-38.195L76.39-38.203C76.8-40.254 77.02-42.374 77.02-44.546C77.02-62.328 62.36-76.75 44.27-76.75C26.18-76.75 11.52-62.328 11.52-44.546C11.52-40.546 12.26-36.716 13.62-33.185L13.62-33.176L13.62-33.168C16.68-23.129 24.41-12.89 31.4-5.145C34.9-1.276 38.2 1.963 40.63 4.235C41.84 5.371 42.83 6.265 43.53 6.875C43.87 7.179 44.14 7.413 44.32 7.571C44.37 7.609 44.41 7.643 44.44 7.672ZM44.44 8L44.28 8.191L44.44 8.326L44.6 8.191L44.44 8Z"/>
   <path class="monochrome-0 multicolor-0:systemGreenColor hierarchical-0:primary SFSymbolsPreview28CD41" d="M11.02-44.546C11.02-62.612 25.91-77.25 44.27-77.25C62.63-77.25 77.52-62.612 77.52-44.546C77.52-42.343 77.3-40.193 76.88-38.111C75.41-27.242 67.32-15.659 59.63-6.818C55.78-2.39 52.03 1.361 49.23 4.006C47.84 5.328 46.68 6.374 45.87 7.089C45.47 7.447 45.15 7.722 44.94 7.908C44.83 8.001 44.74 8.072 44.69 8.119L44.63 8.173L44.61 8.19L44.6 8.191C44.6 8.191 44.6 8.191 44.44 8C44.28 8.191 44.28 8.191 44.28 8.191L44.28 8.19L44.26 8.176L44.21 8.13C44.16 8.09 44.09 8.029 44 7.95C43.81 7.791 43.54 7.556 43.2 7.25C42.5 6.637 41.5 5.74 40.28 4.6C37.85 2.321 34.54-0.928 31.03-4.81C24.03-12.564 16.24-22.868 13.15-33.014C11.77-36.6 11.02-40.487 11.02-44.546Z"/>
   <path class="monochrome-1 multicolor-1:white hierarchical-1:primary SFSymbolsPreviewFFFFFF" d="M21.02-44C21.02-56.769 31.47-67.25 44.27-67.25C57.04-67.25 67.52-56.769 67.52-44C67.52-31.231 57.04-20.75 44.27-20.75C31.47-20.75 21.02-31.231 21.02-44Z"/>
   <path class="monochrome-2 multicolor-2:systemGreenColor hierarchical-2:primary SFSymbolsPreview28CD41" d="M54.84-55.025C55.12-55.19 55.42-55.25 55.78-55.25C56.29-55.25 56.73-55.08 57.04-54.764C57.36-54.449 57.52-54.009 57.52-53.508C57.52-53.069 57.39-52.641 57.06-52.136C57.06-52.135 57.06-52.134 57.06-52.134L43.8-31.158L43.8-31.156C43.35-30.468 42.71-30.114 41.91-30.114C41.52-30.114 41.17-30.201 40.85-30.383C40.53-30.564 40.25-30.831 39.99-31.175L39.99-31.176L32.55-40.837C32.55-40.837 32.55-40.837 32.55-40.837C32.21-41.267 32.02-41.738 32.02-42.191C32.02-43.242 32.79-43.987 33.83-43.987C34.17-43.987 34.46-43.92 34.74-43.766C35-43.613 35.23-43.384 35.45-43.086L41.82-34.501L54.15-54.277C54.36-54.611 54.57-54.863 54.84-55.025Z"/>
  </g>
  <g id="Ultralight-S" transform="matrix(1 0 0 1 517.797 696)">
   <path class="SFSymbolsPreviewNone" d="M52.503-54.012C52.503-54.012 52.504-54.012 52.503-54.012L39.792-33.614L32.986-42.788C32.789-43.054 32.609-43.225 32.422-43.331C32.239-43.436 32.033-43.487 31.768-43.487C30.992-43.487 30.453-42.958 30.453-42.191C30.453-41.879 30.588-41.513 30.874-41.143L38.315-31.482C38.315-31.482 38.315-31.482 38.315-31.482C38.557-31.17 38.789-30.955 39.031-30.818C39.269-30.682 39.531-30.614 39.846-30.614C40.468-30.614 40.954-30.878 41.31-31.427C41.31-31.427 41.31-31.427 41.31-31.428L54.573-52.404L54.575-52.408C54.863-52.848 54.953-53.183 54.953-53.508C54.953-53.898 54.827-54.205 54.621-54.412C54.415-54.62 54.109-54.75 53.711-54.75C53.412-54.75 53.206-54.7 53.035-54.597C52.86-54.492 52.694-54.314 52.503-54.012ZM42.2-66.75C29.681-66.75 19.453-56.493 19.453-44C19.453-31.507 29.683-21.25 42.202-21.25C54.695-21.25 64.953-31.507 64.953-44C64.953-56.493 54.693-66.75 42.2-66.75ZM42.376 7.672C42.422 7.633 42.478 7.585 42.542 7.529C42.757 7.345 43.072 7.071 43.474 6.715C44.278 6.003 45.431 4.961 46.824 3.642C49.61 1.006 53.354-2.734 57.189-7.146C64.869-15.983 72.87-27.473 74.316-38.186L74.317-38.195L74.319-38.203C74.734-40.254 74.953-42.374 74.953-44.546C74.953-62.328 60.293-76.75 42.202-76.75C24.111-76.75 9.453-62.328 9.453-44.546C9.453-40.546 10.194-36.716 11.549-33.185L11.553-33.176L11.555-33.168C14.612-23.129 22.345-12.89 29.337-5.145C32.829-1.276 36.13 1.963 38.558 4.235C39.772 5.371 40.767 6.265 41.459 6.875C41.805 7.179 42.074 7.413 42.258 7.571C42.302 7.609 42.342 7.643 42.376 7.672ZM42.376 8L42.215 8.191L42.376 8.326L42.537 8.191L42.376 8Z"/>
   <path class="monochrome-0 multicolor-0:systemGreenColor hierarchical-0:primary SFSymbolsPreview28CD41" d="M8.953-44.546C8.953-62.612 23.843-77.25 42.202-77.25C60.561-77.25 75.453-62.612 75.453-44.546C75.453-42.343 75.231-40.193 74.811-38.111C73.34-27.242 65.25-15.659 57.566-6.818C53.718-2.39 49.962 1.361 47.167 4.006C45.77 5.328 44.613 6.374 43.805 7.089C43.401 7.447 43.085 7.722 42.869 7.908C42.761 8.001 42.678 8.072 42.622 8.119L42.559 8.173L42.538 8.19L42.537 8.191C42.537 8.191 42.537 8.191 42.376 8C42.215 8.191 42.215 8.191 42.215 8.191L42.214 8.19L42.197 8.176L42.143 8.13C42.095 8.09 42.024 8.029 41.932 7.95C41.747 7.791 41.476 7.556 41.128 7.25C40.433 6.637 39.434 5.74 38.216 4.6C35.781 2.321 32.47-0.928 28.966-4.81C21.966-12.564 14.171-22.868 11.079-33.014C9.705-36.6 8.953-40.487 8.953-44.546Z"/>
   <path class="monochrome-1 multicolor-1:white hierarchical-1:primary SFSymbolsPreviewFFFFFF" d="M18.953-44C18.953-56.769 29.405-67.25 42.2-67.25C54.969-67.25 65.453-56.769 65.453-44C65.453-31.231 54.971-20.75 42.202-20.75C29.407-20.75 18.953-31.231 18.953-44Z"/>
   <path class="monochrome-2 multicolor-2:systemGreenColor hierarchical-2:primary SFSymbolsPreview28CD41" d="M52.777-55.025C53.051-55.19 53.355-55.25 53.711-55.25C54.222-55.25 54.663-55.08 54.976-54.764C55.288-54.449 55.453-54.009 55.453-53.508C55.453-53.069 55.325-52.641 54.995-52.136C54.994-52.135 54.994-52.134 54.994-52.134L41.732-31.158L41.73-31.156C41.285-30.468 40.643-30.114 39.846-30.114C39.452-30.114 39.104-30.201 38.783-30.383C38.466-30.564 38.188-30.831 37.921-31.175L37.92-31.176L30.478-40.837C30.478-40.837 30.478-40.837 30.478-40.837C30.146-41.267 29.953-41.738 29.953-42.191C29.953-43.242 30.724-43.987 31.768-43.987C32.103-43.987 32.398-43.92 32.669-43.766C32.938-43.613 33.167-43.384 33.388-43.086L39.756-34.501L52.08-54.277C52.29-54.611 52.506-54.863 52.777-55.025Z"/>
  </g>
 </g>
</svg>
