<?xml version="1.0" encoding="UTF-8"?>
<!--Generator: Apple Native CoreSVG 232.5-->
<!DOCTYPE svg
PUBLIC "-//W3C//DTD SVG 1.1//EN"
       "http://www.w3.org/Graphics/SVG/1.1/DTD/svg11.dtd">
<svg version="1.1" xmlns="http://www.w3.org/2000/svg" xmlns:xlink="http://www.w3.org/1999/xlink" width="3300" height="2200">
 <!--glyph: "", point size: 100.0, font version: "19.2d2e1", template writer version: "128"-->
 <style>.monochrome-0 {}

.multicolor-0:labelColor {}

.hierarchical-0:primary {}

.SFSymbolsPreview212121 {fill:#212121;opacity:1.0}
.SFSymbolsPreviewNone {fill:none;opacity:1.0}
</style>
 <g id="Notes">
  <rect height="2200" id="artboard" style="fill:white;opacity:1" width="3300" x="0" y="0"/>
  <line style="fill:none;stroke:black;opacity:1;stroke-width:0.5;" x1="263" x2="3036" y1="292" y2="292"/>
  <text style="stroke:none;fill:black;font-family:sans-serif;font-size:13;font-weight:bold;" transform="matrix(1 0 0 1 263 322)">Weight/Scale Variations</text>
  <text style="stroke:none;fill:black;font-family:sans-serif;font-size:13;text-anchor:middle;" transform="matrix(1 0 0 1 559.711 322)">Ultralight</text>
  <text style="stroke:none;fill:black;font-family:sans-serif;font-size:13;text-anchor:middle;" transform="matrix(1 0 0 1 856.422 322)">Thin</text>
  <text style="stroke:none;fill:black;font-family:sans-serif;font-size:13;text-anchor:middle;" transform="matrix(1 0 0 1 1153.13 322)">Light</text>
  <text style="stroke:none;fill:black;font-family:sans-serif;font-size:13;text-anchor:middle;" transform="matrix(1 0 0 1 1449.84 322)">Regular</text>
  <text style="stroke:none;fill:black;font-family:sans-serif;font-size:13;text-anchor:middle;" transform="matrix(1 0 0 1 1746.56 322)">Medium</text>
  <text style="stroke:none;fill:black;font-family:sans-serif;font-size:13;text-anchor:middle;" transform="matrix(1 0 0 1 2043.27 322)">Semibold</text>
  <text style="stroke:none;fill:black;font-family:sans-serif;font-size:13;text-anchor:middle;" transform="matrix(1 0 0 1 2339.98 322)">Bold</text>
  <text style="stroke:none;fill:black;font-family:sans-serif;font-size:13;text-anchor:middle;" transform="matrix(1 0 0 1 2636.69 322)">Heavy</text>
  <text style="stroke:none;fill:black;font-family:sans-serif;font-size:13;text-anchor:middle;" transform="matrix(1 0 0 1 2933.4 322)">Black</text>
  <line style="fill:none;stroke:black;opacity:1;stroke-width:0.5;" x1="263" x2="3036" y1="1903" y2="1903"/>
  <g transform="matrix(0.2 0 0 0.2 263 1933)">
   <path d="m46.2402 4.15039c21.5332 0 39.4531-17.8711 39.4531-39.4043s-17.9688-39.4043-39.502-39.4043c-21.4844 0-39.3555 17.8711-39.3555 39.4043s17.9199 39.4043 39.4043 39.4043Zm0-7.42188c-17.7246 0-31.8848-14.209-31.8848-31.9824s14.1113-31.9824 31.8359-31.9824c17.7734 0 32.0312 14.209 32.0312 31.9824s-14.209 31.9824-31.9824 31.9824Zm-17.9688-31.9824c0 2.14844 1.51367 3.61328 3.75977 3.61328h10.498v10.5957c0 2.19727 1.46484 3.71094 3.61328 3.71094 2.24609 0 3.71094-1.51367 3.71094-3.71094v-10.5957h10.5957c2.19727 0 3.71094-1.46484 3.71094-3.61328 0-2.19727-1.51367-3.71094-3.71094-3.71094h-10.5957v-10.5469c0-2.24609-1.46484-3.75977-3.71094-3.75977-2.14844 0-3.61328 1.51367-3.61328 3.75977v10.5469h-10.498c-2.24609 0-3.75977 1.51367-3.75977 3.71094Z"/>
  </g>
  <g transform="matrix(0.2 0 0 0.2 281.506 1933)">
   <path d="m58.5449 14.5508c27.2461 0 49.8047-22.6074 49.8047-49.8047 0-27.2461-22.6074-49.8047-49.8535-49.8047-27.1973 0-49.7559 22.5586-49.7559 49.8047 0 27.1973 22.6074 49.8047 49.8047 49.8047Zm0-8.30078c-23.0469 0-41.4551-18.457-41.4551-41.5039s18.3594-41.5039 41.4062-41.5039 41.5527 18.457 41.5527 41.5039-18.457 41.5039-41.5039 41.5039Zm-22.6562-41.5039c0 2.39258 1.66016 4.00391 4.15039 4.00391h14.3555v14.4043c0 2.44141 1.66016 4.15039 4.05273 4.15039 2.44141 0 4.15039-1.66016 4.15039-4.15039v-14.4043h14.4043c2.44141 0 4.15039-1.61133 4.15039-4.00391 0-2.44141-1.70898-4.15039-4.15039-4.15039h-14.4043v-14.3555c0-2.49023-1.70898-4.19922-4.15039-4.19922-2.39258 0-4.05273 1.70898-4.05273 4.19922v14.3555h-14.3555c-2.49023 0-4.15039 1.70898-4.15039 4.15039Z"/>
  </g>
  <g transform="matrix(0.2 0 0 0.2 304.924 1933)">
   <path d="m74.8535 28.3203c34.8145 0 63.623-28.8086 63.623-63.5742 0-34.8145-28.8574-63.623-63.6719-63.623-34.7656 0-63.5254 28.8086-63.5254 63.623 0 34.7656 28.8086 63.5742 63.5742 63.5742Zm0-9.08203c-30.1758 0-54.4434-24.3164-54.4434-54.4922 0-30.2246 24.2188-54.4922 54.3945-54.4922 30.2246 0 54.541 24.2676 54.541 54.4922 0 30.1758-24.2676 54.4922-54.4922 54.4922Zm-28.8574-54.4922c0 2.58789 1.85547 4.39453 4.58984 4.39453h19.7266v19.7754c0 2.68555 1.85547 4.58984 4.44336 4.58984 2.68555 0 4.54102-1.85547 4.54102-4.58984v-19.7754h19.7754c2.68555 0 4.58984-1.80664 4.58984-4.39453 0-2.73438-1.85547-4.58984-4.58984-4.58984h-19.7754v-19.7266c0-2.73438-1.85547-4.63867-4.54102-4.63867-2.58789 0-4.44336 1.9043-4.44336 4.63867v19.7266h-19.7266c-2.73438 0-4.58984 1.85547-4.58984 4.58984Z"/>
  </g>
  <text style="stroke:none;fill:black;font-family:sans-serif;font-size:13;font-weight:bold;" transform="matrix(1 0 0 1 263 1953)">Design Variations</text>
  <text style="stroke:none;fill:black;font-family:sans-serif;font-size:13;" transform="matrix(1 0 0 1 263 1971)">Symbols are supported in up to nine weights and three scales.</text>
  <text style="stroke:none;fill:black;font-family:sans-serif;font-size:13;" transform="matrix(1 0 0 1 263 1989)">For optimal layout with text and other symbols, vertically align</text>
  <text style="stroke:none;fill:black;font-family:sans-serif;font-size:13;" transform="matrix(1 0 0 1 263 2007)">symbols with the adjacent text.</text>
  <line style="fill:none;stroke:#00AEEF;stroke-width:0.5;opacity:1.0;" x1="776" x2="776" y1="1919" y2="1933"/>
  <g transform="matrix(0.2 0 0 0.2 776 1933)">
   <path d="m16.5527 0.78125c2.58789 0 3.85742-0.976562 4.78516-3.71094l6.29883-17.2363h28.8086l6.29883 17.2363c0.927734 2.73438 2.19727 3.71094 4.73633 3.71094 2.58789 0 4.24805-1.5625 4.24805-4.00391 0-0.830078-0.146484-1.61133-0.537109-2.63672l-22.9004-60.9863c-1.12305-2.97852-3.125-4.49219-6.25-4.49219-3.02734 0-5.07812 1.46484-6.15234 4.44336l-22.9004 61.084c-0.390625 1.02539-0.537109 1.80664-0.537109 2.63672 0 2.44141 1.5625 3.95508 4.10156 3.95508Zm13.4766-28.3691 11.8652-32.8613h0.244141l11.8652 32.8613Z"/>
  </g>
  <line style="fill:none;stroke:#00AEEF;stroke-width:0.5;opacity:1.0;" x1="792.836" x2="792.836" y1="1919" y2="1933"/>
  <text style="stroke:none;fill:black;font-family:sans-serif;font-size:13;font-weight:bold;" transform="matrix(1 0 0 1 776 1953)">Margins</text>
  <text style="stroke:none;fill:black;font-family:sans-serif;font-size:13;" transform="matrix(1 0 0 1 776 1971)">Leading and trailing margins on the left and right side of each symbol</text>
  <text style="stroke:none;fill:black;font-family:sans-serif;font-size:13;" transform="matrix(1 0 0 1 776 1989)">can be adjusted by modifying the x-location of the margin guidelines.</text>
  <text style="stroke:none;fill:black;font-family:sans-serif;font-size:13;" transform="matrix(1 0 0 1 776 2007)">Modifications are automatically applied proportionally to all</text>
  <text style="stroke:none;fill:black;font-family:sans-serif;font-size:13;" transform="matrix(1 0 0 1 776 2025)">scales and weights.</text>
  <g transform="matrix(0.2 0 0 0.2 1289 1933)">
   <path d="m14.209 9.32617 8.49609 8.54492c4.29688 4.3457 9.22852 4.05273 13.8672-1.07422l53.4668-58.9355-4.83398-4.88281-53.0762 58.3984c-1.75781 2.00195-3.41797 2.49023-5.76172 0.146484l-5.85938-5.81055c-2.34375-2.29492-1.80664-4.00391 0.195312-5.81055l57.373-54.0039-4.88281-4.83398-57.959 54.4434c-4.93164 4.58984-5.32227 9.47266-1.02539 13.8184Zm32.0801-90.9668c-2.09961 2.05078-2.24609 4.93164-1.07422 6.88477 1.17188 1.80664 3.4668 2.97852 6.68945 2.14844 7.32422-1.70898 14.9414-2.00195 22.0703 2.68555l-2.92969 7.27539c-1.70898 4.15039-0.830078 7.08008 1.85547 9.81445l11.4746 11.5723c2.44141 2.44141 4.49219 2.53906 7.32422 2.05078l5.32227-0.976562 3.32031 3.36914-0.195312 2.7832c-0.195312 2.49023 0.439453 4.39453 2.88086 6.78711l3.80859 3.71094c2.39258 2.39258 5.46875 2.53906 7.8125 0.195312l14.5508-14.5996c2.34375-2.34375 2.24609-5.32227-0.146484-7.71484l-3.85742-3.80859c-2.39258-2.39258-4.24805-3.17383-6.64062-2.97852l-2.88086 0.244141-3.22266-3.17383 1.2207-5.61523c0.634766-2.83203-0.146484-5.0293-3.07617-7.95898l-10.9863-10.9375c-16.6992-16.6016-38.8672-16.2109-53.3203-1.75781Zm7.4707 1.85547c12.1582-8.88672 28.6133-7.37305 39.7461 3.75977l12.1582 12.0605c1.17188 1.17188 1.36719 2.09961 1.02539 3.80859l-1.61133 7.42188 7.51953 7.42188 4.93164-0.292969c1.26953-0.0488281 1.66016 0.0488281 2.63672 1.02539l2.88086 2.88086-12.207 12.207-2.88086-2.88086c-0.976562-0.976562-1.12305-1.36719-1.07422-2.68555l0.341797-4.88281-7.4707-7.42188-7.61719 1.26953c-1.61133 0.341797-2.34375 0.195312-3.56445-0.976562l-10.0098-10.0098c-1.26953-1.17188-1.41602-2.00195-0.634766-3.85742l4.39453-10.4492c-7.8125-7.27539-17.9688-10.4004-28.125-7.42188-0.78125 0.195312-1.07422-0.439453-0.439453-0.976562Z"/>
  </g>
  <text style="stroke:none;fill:black;font-family:sans-serif;font-size:13;font-weight:bold;" transform="matrix(1 0 0 1 1289 1953)">Exporting</text>
  <text style="stroke:none;fill:black;font-family:sans-serif;font-size:13;" transform="matrix(1 0 0 1 1289 1971)">Symbols should be outlined when exporting to ensure the</text>
  <text style="stroke:none;fill:black;font-family:sans-serif;font-size:13;" transform="matrix(1 0 0 1 1289 1989)">design is preserved when submitting to Xcode.</text>
  <text id="template-version" style="stroke:none;fill:black;font-family:sans-serif;font-size:13;text-anchor:end;" transform="matrix(1 0 0 1 3036 1933)">Template v.4.0</text>
  <text style="stroke:none;fill:black;font-family:sans-serif;font-size:13;text-anchor:end;" transform="matrix(1 0 0 1 3036 1951)">Requires Xcode 14 or greater</text>
  <text id="descriptive-name" style="stroke:none;fill:black;font-family:sans-serif;font-size:13;text-anchor:end;" transform="matrix(1 0 0 1 3036 1969)">Generated from map</text>
  <text style="stroke:none;fill:black;font-family:sans-serif;font-size:13;text-anchor:end;" transform="matrix(1 0 0 1 3036 1987)">Typeset at 100.0 points</text>
  <text style="stroke:none;fill:black;font-family:sans-serif;font-size:13;" transform="matrix(1 0 0 1 263 726)">Small</text>
  <text style="stroke:none;fill:black;font-family:sans-serif;font-size:13;" transform="matrix(1 0 0 1 263 1156)">Medium</text>
  <text style="stroke:none;fill:black;font-family:sans-serif;font-size:13;" transform="matrix(1 0 0 1 263 1586)">Large</text>
 </g>
 <g id="Guides">
  <g id="H-reference" style="fill:#27AAE1;stroke:none;" transform="matrix(1 0 0 1 339 696)">
   <path d="M0.993654 0L3.63775 0L29.3281-67.1323L30.0303-67.1323L30.0303-70.459L28.1226-70.459ZM11.6885-24.4799L46.9815-24.4799L46.2315-26.7285L12.4385-26.7285ZM55.1196 0L57.7637 0L30.6382-70.459L29.4326-70.459L29.4326-67.1323Z"/>
  </g>
  <line id="Baseline-S" style="fill:none;stroke:#27AAE1;opacity:1;stroke-width:0.5;" x1="263" x2="3036" y1="696" y2="696"/>
  <line id="Capline-S" style="fill:none;stroke:#27AAE1;opacity:1;stroke-width:0.5;" x1="263" x2="3036" y1="625.541" y2="625.541"/>
  <g id="H-reference" style="fill:#27AAE1;stroke:none;" transform="matrix(1 0 0 1 339 1126)">
   <path d="M0.993654 0L3.63775 0L29.3281-67.1323L30.0303-67.1323L30.0303-70.459L28.1226-70.459ZM11.6885-24.4799L46.9815-24.4799L46.2315-26.7285L12.4385-26.7285ZM55.1196 0L57.7637 0L30.6382-70.459L29.4326-70.459L29.4326-67.1323Z"/>
  </g>
  <line id="Baseline-M" style="fill:none;stroke:#27AAE1;opacity:1;stroke-width:0.5;" x1="263" x2="3036" y1="1126" y2="1126"/>
  <line id="Capline-M" style="fill:none;stroke:#27AAE1;opacity:1;stroke-width:0.5;" x1="263" x2="3036" y1="1055.54" y2="1055.54"/>
  <g id="H-reference" style="fill:#27AAE1;stroke:none;" transform="matrix(1 0 0 1 339 1556)">
   <path d="M0.993654 0L3.63775 0L29.3281-67.1323L30.0303-67.1323L30.0303-70.459L28.1226-70.459ZM11.6885-24.4799L46.9815-24.4799L46.2315-26.7285L12.4385-26.7285ZM55.1196 0L57.7637 0L30.6382-70.459L29.4326-70.459L29.4326-67.1323Z"/>
  </g>
  <line id="Baseline-L" style="fill:none;stroke:#27AAE1;opacity:1;stroke-width:0.5;" x1="263" x2="3036" y1="1556" y2="1556"/>
  <line id="Capline-L" style="fill:none;stroke:#27AAE1;opacity:1;stroke-width:0.5;" x1="263" x2="3036" y1="1485.54" y2="1485.54"/>
  <line id="left-margin-Ultralight-S" style="fill:none;stroke:#00AEEF;stroke-width:0.5;opacity:1.0;" x1="517.797" x2="517.797" y1="600.785" y2="720.121"/>
  <line id="right-margin-Ultralight-S" style="fill:none;stroke:#00AEEF;stroke-width:0.5;opacity:1.0;" x1="601.625" x2="601.625" y1="600.785" y2="720.121"/>
  <line id="left-margin-Regular-S" style="fill:none;stroke:#00AEEF;stroke-width:0.5;opacity:1.0;" x1="1405.73" x2="1405.73" y1="600.785" y2="720.121"/>
  <line id="right-margin-Regular-S" style="fill:none;stroke:#00AEEF;stroke-width:0.5;opacity:1.0;" x1="1493.96" x2="1493.96" y1="600.785" y2="720.121"/>
  <line id="left-margin-Black-S" style="fill:none;stroke:#00AEEF;stroke-width:0.5;opacity:1.0;" x1="2885.99" x2="2885.99" y1="600.785" y2="720.121"/>
  <line id="right-margin-Black-S" style="fill:none;stroke:#00AEEF;stroke-width:0.5;opacity:1.0;" x1="2980.81" x2="2980.81" y1="600.785" y2="720.121"/>
 </g>
 <g id="Symbols">
  <g id="Black-S" transform="matrix(1 0 0 1 2885.99 696)">
   <path class="SFSymbolsPreviewNone" d="M47.84-35.305C55.83-35.305 62.3-41.78 62.3-49.768C62.3-57.756 55.83-64.231 47.84-64.231C39.85-64.231 33.37-57.756 33.37-49.768C33.37-41.78 39.85-35.305 47.84-35.305ZM27.64-41.778L27.64-41.761C29.67-35.001 34.8-28.076 39.48-22.813C41.81-20.189 44.01-17.991 45.63-16.449C46.44-15.679 47.1-15.073 47.56-14.66C47.72-14.522 47.85-14.406 47.95-14.312C48.09-14.43 48.26-14.582 48.46-14.768C49-15.251 49.77-15.957 50.7-16.852C52.56-18.641 55.06-21.178 57.61-24.171C62.75-30.181 68.05-37.937 69-45.127L69-45.143L69.01-45.159C69.28-46.534 69.43-47.955 69.43-49.412C69.43-61.335 59.76-71 47.84-71C35.91-71 26.25-61.335 26.25-49.412C26.25-46.729 26.74-44.162 27.63-41.794L27.64-41.778ZM60.5-20.624L71.67-22.776L71.22-23.082L62.81-23.082L60.5-20.624ZM26.97-23.082L38.1-17.562L33.04-23.082L26.97-23.082ZM21.37-19.498L18.32-13.034L29.19-15.091L21.37-19.498ZM52.05-9.314L68.35 0.5L82.55 0.5L74.76-17.499L55.16-14.043L52.05-9.314ZM36.16-11.299L15.89-7.291L12.75 0.5L57.17 0.5L36.16-11.299Z"/>
   <path class="monochrome-0 multicolor-0:labelColor hierarchical-0:primary SFSymbolsPreview212121" d="M47.95-13.649C47.95-13.649 31.28-27.879 27.16-41.618C26.25-44.041 25.75-46.668 25.75-49.412C25.75-61.611 35.64-71.5 47.84-71.5C60.04-71.5 69.93-61.611 69.93-49.412C69.93-47.922 69.78-46.468 69.5-45.061C67.55-30.37 47.95-13.649 47.95-13.649ZM51.35-9.154L68.21 1L83.31 1L75.06-18.06L54.86-14.498L51.35-9.154ZM36.25-11.826L15.52-7.729L12.01 1L59.08 1L36.25-11.826ZM21.14-20.198L17.45-12.36L30.63-14.854L21.14-20.198ZM24.83-23.582L40.29-15.923L33.26-23.582L24.83-23.582ZM59.08-19.841L72.95-22.513L71.37-23.582L62.59-23.582L59.08-19.841ZM47.84-34.805C56.1-34.805 62.8-41.504 62.8-49.768C62.8-58.032 56.1-64.731 47.84-64.731C39.57-64.731 32.87-58.032 32.87-49.768C32.87-41.504 39.57-34.805 47.84-34.805Z"/>
  </g>
  <g id="Regular-S" transform="matrix(1 0 0 1 1405.73 696)">
   <path class="SFSymbolsPreviewNone" d="M44.1-35.305C52.09-35.305 58.56-41.78 58.56-49.768C58.56-57.756 52.09-64.231 44.1-64.231C36.11-64.231 29.63-57.756 29.63-49.768C29.63-41.78 36.11-35.305 44.1-35.305ZM23.9-41.778L23.9-41.761C25.93-35.001 31.06-28.076 35.74-22.813C38.07-20.189 40.27-17.991 41.89-16.449C42.7-15.679 43.36-15.073 43.82-14.66C43.98-14.522 44.11-14.406 44.21-14.312C44.35-14.43 44.52-14.582 44.72-14.768C45.26-15.251 46.03-15.957 46.96-16.852C48.82-18.641 51.32-21.178 53.87-24.171C59.01-30.181 64.31-37.937 65.26-45.127L65.26-45.143L65.27-45.159C65.54-46.534 65.69-47.955 65.69-49.412C65.69-61.335 56.02-71 44.1-71C32.17-71 22.51-61.335 22.51-49.412C22.51-46.729 23-44.162 23.89-41.794L23.9-41.778ZM56.76-20.624L67.93-22.776L67.48-23.082L59.07-23.082L56.76-20.624ZM23.23-23.082L34.36-17.562L29.3-23.082L23.23-23.082ZM17.63-19.498L14.58-13.034L25.45-15.091L17.63-19.498ZM48.31-9.314L64.61 0.5L78.81 0.5L71.02-17.499L51.42-14.043L48.31-9.314ZM32.42-11.299L12.15-7.291L9.01 0.5L53.43 0.5L32.42-11.299Z"/>
   <path class="monochrome-0 multicolor-0:labelColor hierarchical-0:primary SFSymbolsPreview212121" d="M44.21-13.649C44.21-13.649 27.54-27.879 23.42-41.618C22.51-44.041 22.01-46.668 22.01-49.412C22.01-61.611 31.9-71.5 44.1-71.5C56.3-71.5 66.19-61.611 66.19-49.412C66.19-47.922 66.04-46.468 65.76-45.061C63.81-30.37 44.21-13.649 44.21-13.649ZM47.61-9.154L64.47 1L79.57 1L71.32-18.06L51.12-14.498L47.61-9.154ZM32.51-11.826L11.78-7.729L8.27 1L55.34 1L32.51-11.826ZM17.4-20.198L13.71-12.36L26.89-14.854L17.4-20.198ZM21.09-23.582L36.55-15.923L29.52-23.582L21.09-23.582ZM55.34-19.841L69.21-22.513L67.63-23.582L58.85-23.582L55.34-19.841ZM44.1-34.805C52.36-34.805 59.06-41.504 59.06-49.768C59.06-58.032 52.36-64.731 44.1-64.731C35.83-64.731 29.13-58.032 29.13-49.768C29.13-41.504 35.83-34.805 44.1-34.805Z"/>
  </g>
  <g id="Ultralight-S" transform="matrix(1 0 0 1 517.797 696)">
   <path class="SFSymbolsPreviewNone" d="M42.03-35.305C50.018-35.305 56.493-41.78 56.493-49.768C56.493-57.756 50.018-64.231 42.03-64.231C34.043-64.231 27.567-57.756 27.567-49.768C27.567-41.78 34.043-35.305 42.03-35.305ZM21.83-41.778L21.835-41.761C23.86-35.001 28.996-28.076 33.668-22.813C35.998-20.189 38.201-17.991 39.821-16.449C40.631-15.679 41.295-15.073 41.756-14.66C41.909-14.522 42.04-14.406 42.146-14.312C42.279-14.43 42.451-14.582 42.658-14.768C43.194-15.251 43.962-15.957 44.892-16.852C46.751-18.641 49.249-21.178 51.807-24.171C56.944-30.181 62.241-37.937 63.195-45.127L63.197-45.143L63.2-45.159C63.475-46.534 63.619-47.955 63.619-49.412C63.619-61.335 53.953-71 42.03-71C30.107-71 20.442-61.335 20.442-49.412C20.442-46.729 20.931-44.162 21.824-41.794L21.83-41.778ZM54.691-20.624L65.864-22.776L65.411-23.082L56.999-23.082L54.691-20.624ZM21.158-23.082L32.296-17.562L27.234-23.082L21.158-23.082ZM15.559-19.498L12.517-13.034L23.381-15.091L15.559-19.498ZM46.246-9.314L62.542 0.5L76.745 0.5L68.95-17.499L49.355-14.043L46.246-9.314ZM30.355-11.299L10.078-7.291L6.943 0.5L51.359 0.5L30.355-11.299Z"/>
   <path class="monochrome-0 multicolor-0:labelColor hierarchical-0:primary SFSymbolsPreview212121" d="M42.146-13.649C42.146-13.649 25.471-27.879 21.356-41.618C20.442-44.041 19.942-46.668 19.942-49.412C19.942-61.611 29.831-71.5 42.03-71.5C54.229-71.5 64.119-61.611 64.119-49.412C64.119-47.922 63.971-46.468 63.691-45.061C61.741-30.37 42.146-13.649 42.146-13.649ZM45.543-9.154L62.403 1L77.506 1L69.252-18.06L49.055-14.498L45.543-9.154ZM30.439-11.826L9.715-7.729L6.203 1L53.27 1L30.439-11.826ZM15.335-20.198L11.647-12.36L24.819-14.854L15.335-20.198ZM19.024-23.582L34.478-15.923L27.453-23.582L19.024-23.582ZM53.27-19.841L67.145-22.513L65.564-23.582L56.783-23.582L53.27-19.841ZM42.03-34.805C50.294-34.805 56.993-41.504 56.993-49.768C56.993-58.032 50.294-64.731 42.03-64.731C33.766-64.731 27.067-58.032 27.067-49.768C27.067-41.504 33.766-34.805 42.03-34.805Z"/>
  </g>
 </g>
</svg>
