<?xml version="1.0" encoding="UTF-8"?>
<!--Generator: Apple Native CoreSVG 232.5-->
<!DOCTYPE svg
PUBLIC "-//W3C//DTD SVG 1.1//EN"
       "http://www.w3.org/Graphics/SVG/1.1/DTD/svg11.dtd">
<svg version="1.1" xmlns="http://www.w3.org/2000/svg" xmlns:xlink="http://www.w3.org/1999/xlink" width="3300" height="2200">
 <!--glyph: "", point size: 100.0, font version: "19.2d2e1", template writer version: "128"-->
 <style>.monochrome-0 {}
.monochrome-1 {}
.monochrome-2 {}
.monochrome-3 {}
.monochrome-4 {}
.monochrome-5 {}

.multicolor-0:systemPurpleColor {}
.multicolor-1:white {}
.multicolor-2:black {}
.multicolor-3:custom {fill:#BF7E33}
.multicolor-4:custom {fill:#FFE4AF}
.multicolor-5:black {}

.hierarchical-0:primary {}
.hierarchical-1:primary {}
.hierarchical-2:primary {}
.hierarchical-3:primary {}
.hierarchical-4:primary {}
.hierarchical-5:primary {}

.SFSymbolsPreview000000 {fill:#000000;opacity:1.0}
.SFSymbolsPreviewAF52DE {fill:#AF52DE;opacity:1.0}
.SFSymbolsPreviewBF7E33 {fill:#BF7E33;opacity:1.0}
.SFSymbolsPreviewFFE4AF {fill:#FFE4AF;opacity:1.0}
.SFSymbolsPreviewFFFFFF {fill:#FFFFFF;opacity:1.0}
.SFSymbolsPreviewNone {fill:none;opacity:1.0}
</style>
 <g id="Notes">
  <rect height="2200" id="artboard" style="fill:white;opacity:1" width="3300" x="0" y="0"/>
  <line style="fill:none;stroke:black;opacity:1;stroke-width:0.5;" x1="263" x2="3036" y1="292" y2="292"/>
  <text style="stroke:none;fill:black;font-family:sans-serif;font-size:13;font-weight:bold;" transform="matrix(1 0 0 1 263 322)">Weight/Scale Variations</text>
  <text style="stroke:none;fill:black;font-family:sans-serif;font-size:13;text-anchor:middle;" transform="matrix(1 0 0 1 559.711 322)">Ultralight</text>
  <text style="stroke:none;fill:black;font-family:sans-serif;font-size:13;text-anchor:middle;" transform="matrix(1 0 0 1 856.422 322)">Thin</text>
  <text style="stroke:none;fill:black;font-family:sans-serif;font-size:13;text-anchor:middle;" transform="matrix(1 0 0 1 1153.13 322)">Light</text>
  <text style="stroke:none;fill:black;font-family:sans-serif;font-size:13;text-anchor:middle;" transform="matrix(1 0 0 1 1449.84 322)">Regular</text>
  <text style="stroke:none;fill:black;font-family:sans-serif;font-size:13;text-anchor:middle;" transform="matrix(1 0 0 1 1746.56 322)">Medium</text>
  <text style="stroke:none;fill:black;font-family:sans-serif;font-size:13;text-anchor:middle;" transform="matrix(1 0 0 1 2043.27 322)">Semibold</text>
  <text style="stroke:none;fill:black;font-family:sans-serif;font-size:13;text-anchor:middle;" transform="matrix(1 0 0 1 2339.98 322)">Bold</text>
  <text style="stroke:none;fill:black;font-family:sans-serif;font-size:13;text-anchor:middle;" transform="matrix(1 0 0 1 2636.69 322)">Heavy</text>
  <text style="stroke:none;fill:black;font-family:sans-serif;font-size:13;text-anchor:middle;" transform="matrix(1 0 0 1 2933.4 322)">Black</text>
  <line style="fill:none;stroke:black;opacity:1;stroke-width:0.5;" x1="263" x2="3036" y1="1903" y2="1903"/>
  <g transform="matrix(0.2 0 0 0.2 263 1933)">
   <path d="m46.2402 4.15039c21.5332 0 39.4531-17.8711 39.4531-39.4043s-17.9688-39.4043-39.502-39.4043c-21.4844 0-39.3555 17.8711-39.3555 39.4043s17.9199 39.4043 39.4043 39.4043Zm0-7.42188c-17.7246 0-31.8848-14.209-31.8848-31.9824s14.1113-31.9824 31.8359-31.9824c17.7734 0 32.0312 14.209 32.0312 31.9824s-14.209 31.9824-31.9824 31.9824Zm-17.9688-31.9824c0 2.14844 1.51367 3.61328 3.75977 3.61328h10.498v10.5957c0 2.19727 1.46484 3.71094 3.61328 3.71094 2.24609 0 3.71094-1.51367 3.71094-3.71094v-10.5957h10.5957c2.19727 0 3.71094-1.46484 3.71094-3.61328 0-2.19727-1.51367-3.71094-3.71094-3.71094h-10.5957v-10.5469c0-2.24609-1.46484-3.75977-3.71094-3.75977-2.14844 0-3.61328 1.51367-3.61328 3.75977v10.5469h-10.498c-2.24609 0-3.75977 1.51367-3.75977 3.71094Z"/>
  </g>
  <g transform="matrix(0.2 0 0 0.2 281.506 1933)">
   <path d="m58.5449 14.5508c27.2461 0 49.8047-22.6074 49.8047-49.8047 0-27.2461-22.6074-49.8047-49.8535-49.8047-27.1973 0-49.7559 22.5586-49.7559 49.8047 0 27.1973 22.6074 49.8047 49.8047 49.8047Zm0-8.30078c-23.0469 0-41.4551-18.457-41.4551-41.5039s18.3594-41.5039 41.4062-41.5039 41.5527 18.457 41.5527 41.5039-18.457 41.5039-41.5039 41.5039Zm-22.6562-41.5039c0 2.39258 1.66016 4.00391 4.15039 4.00391h14.3555v14.4043c0 2.44141 1.66016 4.15039 4.05273 4.15039 2.44141 0 4.15039-1.66016 4.15039-4.15039v-14.4043h14.4043c2.44141 0 4.15039-1.61133 4.15039-4.00391 0-2.44141-1.70898-4.15039-4.15039-4.15039h-14.4043v-14.3555c0-2.49023-1.70898-4.19922-4.15039-4.19922-2.39258 0-4.05273 1.70898-4.05273 4.19922v14.3555h-14.3555c-2.49023 0-4.15039 1.70898-4.15039 4.15039Z"/>
  </g>
  <g transform="matrix(0.2 0 0 0.2 304.924 1933)">
   <path d="m74.8535 28.3203c34.8145 0 63.623-28.8086 63.623-63.5742 0-34.8145-28.8574-63.623-63.6719-63.623-34.7656 0-63.5254 28.8086-63.5254 63.623 0 34.7656 28.8086 63.5742 63.5742 63.5742Zm0-9.08203c-30.1758 0-54.4434-24.3164-54.4434-54.4922 0-30.2246 24.2188-54.4922 54.3945-54.4922 30.2246 0 54.541 24.2676 54.541 54.4922 0 30.1758-24.2676 54.4922-54.4922 54.4922Zm-28.8574-54.4922c0 2.58789 1.85547 4.39453 4.58984 4.39453h19.7266v19.7754c0 2.68555 1.85547 4.58984 4.44336 4.58984 2.68555 0 4.54102-1.85547 4.54102-4.58984v-19.7754h19.7754c2.68555 0 4.58984-1.80664 4.58984-4.39453 0-2.73438-1.85547-4.58984-4.58984-4.58984h-19.7754v-19.7266c0-2.73438-1.85547-4.63867-4.54102-4.63867-2.58789 0-4.44336 1.9043-4.44336 4.63867v19.7266h-19.7266c-2.73438 0-4.58984 1.85547-4.58984 4.58984Z"/>
  </g>
  <text style="stroke:none;fill:black;font-family:sans-serif;font-size:13;font-weight:bold;" transform="matrix(1 0 0 1 263 1953)">Design Variations</text>
  <text style="stroke:none;fill:black;font-family:sans-serif;font-size:13;" transform="matrix(1 0 0 1 263 1971)">Symbols are supported in up to nine weights and three scales.</text>
  <text style="stroke:none;fill:black;font-family:sans-serif;font-size:13;" transform="matrix(1 0 0 1 263 1989)">For optimal layout with text and other symbols, vertically align</text>
  <text style="stroke:none;fill:black;font-family:sans-serif;font-size:13;" transform="matrix(1 0 0 1 263 2007)">symbols with the adjacent text.</text>
  <line style="fill:none;stroke:#00AEEF;stroke-width:0.5;opacity:1.0;" x1="776" x2="776" y1="1919" y2="1933"/>
  <g transform="matrix(0.2 0 0 0.2 776 1933)">
   <path d="m16.5527 0.78125c2.58789 0 3.85742-0.976562 4.78516-3.71094l6.29883-17.2363h28.8086l6.29883 17.2363c0.927734 2.73438 2.19727 3.71094 4.73633 3.71094 2.58789 0 4.24805-1.5625 4.24805-4.00391 0-0.830078-0.146484-1.61133-0.537109-2.63672l-22.9004-60.9863c-1.12305-2.97852-3.125-4.49219-6.25-4.49219-3.02734 0-5.07812 1.46484-6.15234 4.44336l-22.9004 61.084c-0.390625 1.02539-0.537109 1.80664-0.537109 2.63672 0 2.44141 1.5625 3.95508 4.10156 3.95508Zm13.4766-28.3691 11.8652-32.8613h0.244141l11.8652 32.8613Z"/>
  </g>
  <line style="fill:none;stroke:#00AEEF;stroke-width:0.5;opacity:1.0;" x1="792.836" x2="792.836" y1="1919" y2="1933"/>
  <text style="stroke:none;fill:black;font-family:sans-serif;font-size:13;font-weight:bold;" transform="matrix(1 0 0 1 776 1953)">Margins</text>
  <text style="stroke:none;fill:black;font-family:sans-serif;font-size:13;" transform="matrix(1 0 0 1 776 1971)">Leading and trailing margins on the left and right side of each symbol</text>
  <text style="stroke:none;fill:black;font-family:sans-serif;font-size:13;" transform="matrix(1 0 0 1 776 1989)">can be adjusted by modifying the x-location of the margin guidelines.</text>
  <text style="stroke:none;fill:black;font-family:sans-serif;font-size:13;" transform="matrix(1 0 0 1 776 2007)">Modifications are automatically applied proportionally to all</text>
  <text style="stroke:none;fill:black;font-family:sans-serif;font-size:13;" transform="matrix(1 0 0 1 776 2025)">scales and weights.</text>
  <g transform="matrix(0.2 0 0 0.2 1289 1933)">
   <path d="m14.209 9.32617 8.49609 8.54492c4.29688 4.3457 9.22852 4.05273 13.8672-1.07422l53.4668-58.9355-4.83398-4.88281-53.0762 58.3984c-1.75781 2.00195-3.41797 2.49023-5.76172 0.146484l-5.85938-5.81055c-2.34375-2.29492-1.80664-4.00391 0.195312-5.81055l57.373-54.0039-4.88281-4.83398-57.959 54.4434c-4.93164 4.58984-5.32227 9.47266-1.02539 13.8184Zm32.0801-90.9668c-2.09961 2.05078-2.24609 4.93164-1.07422 6.88477 1.17188 1.80664 3.4668 2.97852 6.68945 2.14844 7.32422-1.70898 14.9414-2.00195 22.0703 2.68555l-2.92969 7.27539c-1.70898 4.15039-0.830078 7.08008 1.85547 9.81445l11.4746 11.5723c2.44141 2.44141 4.49219 2.53906 7.32422 2.05078l5.32227-0.976562 3.32031 3.36914-0.195312 2.7832c-0.195312 2.49023 0.439453 4.39453 2.88086 6.78711l3.80859 3.71094c2.39258 2.39258 5.46875 2.53906 7.8125 0.195312l14.5508-14.5996c2.34375-2.34375 2.24609-5.32227-0.146484-7.71484l-3.85742-3.80859c-2.39258-2.39258-4.24805-3.17383-6.64062-2.97852l-2.88086 0.244141-3.22266-3.17383 1.2207-5.61523c0.634766-2.83203-0.146484-5.0293-3.07617-7.95898l-10.9863-10.9375c-16.6992-16.6016-38.8672-16.2109-53.3203-1.75781Zm7.4707 1.85547c12.1582-8.88672 28.6133-7.37305 39.7461 3.75977l12.1582 12.0605c1.17188 1.17188 1.36719 2.09961 1.02539 3.80859l-1.61133 7.42188 7.51953 7.42188 4.93164-0.292969c1.26953-0.0488281 1.66016 0.0488281 2.63672 1.02539l2.88086 2.88086-12.207 12.207-2.88086-2.88086c-0.976562-0.976562-1.12305-1.36719-1.07422-2.68555l0.341797-4.88281-7.4707-7.42188-7.61719 1.26953c-1.61133 0.341797-2.34375 0.195312-3.56445-0.976562l-10.0098-10.0098c-1.26953-1.17188-1.41602-2.00195-0.634766-3.85742l4.39453-10.4492c-7.8125-7.27539-17.9688-10.4004-28.125-7.42188-0.78125 0.195312-1.07422-0.439453-0.439453-0.976562Z"/>
  </g>
  <text style="stroke:none;fill:black;font-family:sans-serif;font-size:13;font-weight:bold;" transform="matrix(1 0 0 1 1289 1953)">Exporting</text>
  <text style="stroke:none;fill:black;font-family:sans-serif;font-size:13;" transform="matrix(1 0 0 1 1289 1971)">Symbols should be outlined when exporting to ensure the</text>
  <text style="stroke:none;fill:black;font-family:sans-serif;font-size:13;" transform="matrix(1 0 0 1 1289 1989)">design is preserved when submitting to Xcode.</text>
  <text id="template-version" style="stroke:none;fill:black;font-family:sans-serif;font-size:13;text-anchor:end;" transform="matrix(1 0 0 1 3036 1933)">Template v.4.0</text>
  <text style="stroke:none;fill:black;font-family:sans-serif;font-size:13;text-anchor:end;" transform="matrix(1 0 0 1 3036 1951)">Requires Xcode 14 or greater</text>
  <text id="descriptive-name" style="stroke:none;fill:black;font-family:sans-serif;font-size:13;text-anchor:end;" transform="matrix(1 0 0 1 3036 1969)">Generated from friends.pin</text>
  <text style="stroke:none;fill:black;font-family:sans-serif;font-size:13;text-anchor:end;" transform="matrix(1 0 0 1 3036 1987)">Typeset at 100.0 points</text>
  <text style="stroke:none;fill:black;font-family:sans-serif;font-size:13;" transform="matrix(1 0 0 1 263 726)">Small</text>
  <text style="stroke:none;fill:black;font-family:sans-serif;font-size:13;" transform="matrix(1 0 0 1 263 1156)">Medium</text>
  <text style="stroke:none;fill:black;font-family:sans-serif;font-size:13;" transform="matrix(1 0 0 1 263 1586)">Large</text>
 </g>
 <g id="Guides">
  <g id="H-reference" style="fill:#27AAE1;stroke:none;" transform="matrix(1 0 0 1 339 696)">
   <path d="M0.993654 0L3.63775 0L29.3281-67.1323L30.0303-67.1323L30.0303-70.459L28.1226-70.459ZM11.6885-24.4799L46.9815-24.4799L46.2315-26.7285L12.4385-26.7285ZM55.1196 0L57.7637 0L30.6382-70.459L29.4326-70.459L29.4326-67.1323Z"/>
  </g>
  <line id="Baseline-S" style="fill:none;stroke:#27AAE1;opacity:1;stroke-width:0.5;" x1="263" x2="3036" y1="696" y2="696"/>
  <line id="Capline-S" style="fill:none;stroke:#27AAE1;opacity:1;stroke-width:0.5;" x1="263" x2="3036" y1="625.541" y2="625.541"/>
  <g id="H-reference" style="fill:#27AAE1;stroke:none;" transform="matrix(1 0 0 1 339 1126)">
   <path d="M0.993654 0L3.63775 0L29.3281-67.1323L30.0303-67.1323L30.0303-70.459L28.1226-70.459ZM11.6885-24.4799L46.9815-24.4799L46.2315-26.7285L12.4385-26.7285ZM55.1196 0L57.7637 0L30.6382-70.459L29.4326-70.459L29.4326-67.1323Z"/>
  </g>
  <line id="Baseline-M" style="fill:none;stroke:#27AAE1;opacity:1;stroke-width:0.5;" x1="263" x2="3036" y1="1126" y2="1126"/>
  <line id="Capline-M" style="fill:none;stroke:#27AAE1;opacity:1;stroke-width:0.5;" x1="263" x2="3036" y1="1055.54" y2="1055.54"/>
  <g id="H-reference" style="fill:#27AAE1;stroke:none;" transform="matrix(1 0 0 1 339 1556)">
   <path d="M0.993654 0L3.63775 0L29.3281-67.1323L30.0303-67.1323L30.0303-70.459L28.1226-70.459ZM11.6885-24.4799L46.9815-24.4799L46.2315-26.7285L12.4385-26.7285ZM55.1196 0L57.7637 0L30.6382-70.459L29.4326-70.459L29.4326-67.1323Z"/>
  </g>
  <line id="Baseline-L" style="fill:none;stroke:#27AAE1;opacity:1;stroke-width:0.5;" x1="263" x2="3036" y1="1556" y2="1556"/>
  <line id="Capline-L" style="fill:none;stroke:#27AAE1;opacity:1;stroke-width:0.5;" x1="263" x2="3036" y1="1485.54" y2="1485.54"/>
  <line id="left-margin-Ultralight-S" style="fill:none;stroke:#00AEEF;stroke-width:0.5;opacity:1.0;" x1="517.797" x2="517.797" y1="600.785" y2="720.121"/>
  <line id="right-margin-Ultralight-S" style="fill:none;stroke:#00AEEF;stroke-width:0.5;opacity:1.0;" x1="601.625" x2="601.625" y1="600.785" y2="720.121"/>
  <line id="left-margin-Regular-S" style="fill:none;stroke:#00AEEF;stroke-width:0.5;opacity:1.0;" x1="1405.73" x2="1405.73" y1="600.785" y2="720.121"/>
  <line id="right-margin-Regular-S" style="fill:none;stroke:#00AEEF;stroke-width:0.5;opacity:1.0;" x1="1493.96" x2="1493.96" y1="600.785" y2="720.121"/>
  <line id="left-margin-Black-S" style="fill:none;stroke:#00AEEF;stroke-width:0.5;opacity:1.0;" x1="2885.99" x2="2885.99" y1="600.785" y2="720.121"/>
  <line id="right-margin-Black-S" style="fill:none;stroke:#00AEEF;stroke-width:0.5;opacity:1.0;" x1="2980.81" x2="2980.81" y1="600.785" y2="720.121"/>
 </g>
 <g id="Symbols">
  <g id="Black-S" transform="matrix(1 0 0 1 2885.99 696)">
   <path class="SFSymbolsPreviewNone" d="M47.26-66.5C34.74-66.5 24.51-56.243 24.51-43.75C24.51-31.257 34.74-21 47.26-21C59.75-21 70.01-31.257 70.01-43.75C70.01-56.243 59.75-66.5 47.26-66.5ZM47.43 7.922C47.48 7.883 47.53 7.835 47.6 7.779C47.81 7.595 48.13 7.321 48.53 6.965C49.34 6.253 50.49 5.211 51.88 3.892C54.67 1.256 58.41-2.484 62.25-6.896C69.93-15.733 77.93-27.223 79.37-37.936L79.37-37.945L79.38-37.953C79.79-40.004 80.01-42.124 80.01-44.296C80.01-62.078 65.35-76.5 47.26-76.5C29.17-76.5 14.51-62.078 14.51-44.296C14.51-40.296 15.25-36.466 16.61-32.935L16.61-32.926L16.61-32.918C19.67-22.879 27.4-12.64 34.39-4.895C37.89-1.026 41.19 2.213 43.62 4.485C44.83 5.621 45.82 6.515 46.52 7.125C46.86 7.429 47.13 7.663 47.31 7.821C47.36 7.859 47.4 7.893 47.43 7.922ZM47.43 8.25L47.27 8.441L47.43 8.576L47.59 8.441L47.43 8.25Z"/>
   <path class="monochrome-0 multicolor-0:systemPurpleColor hierarchical-0:primary SFSymbolsPreviewAF52DE" d="M14.01-44.296C14.01-62.362 28.9-77 47.26-77C65.62-77 80.51-62.362 80.51-44.296C80.51-42.093 80.29-39.943 79.87-37.861C78.4-26.992 70.31-15.409 62.62-6.568C58.77-2.14 55.02 1.611 52.22 4.256C50.83 5.578 49.67 6.624 48.86 7.339C48.46 7.697 48.14 7.972 47.93 8.158C47.82 8.251 47.73 8.322 47.68 8.369L47.62 8.423L47.6 8.44L47.59 8.441C47.59 8.441 47.59 8.441 47.43 8.25C47.27 8.441 47.27 8.441 47.27 8.441L47.27 8.44L47.25 8.426L47.2 8.38C47.15 8.34 47.08 8.279 46.99 8.2C46.8 8.041 46.53 7.806 46.19 7.5C45.49 6.887 44.49 5.99 43.27 4.85C40.84 2.571 37.53-0.678 34.02-4.56C27.02-12.314 19.23-22.618 16.14-32.764C14.76-36.35 14.01-40.237 14.01-44.296Z"/>
   <path class="monochrome-1 multicolor-1:white hierarchical-1:primary SFSymbolsPreviewFFFFFF" d="M24.01-43.75C24.01-56.519 34.46-67 47.26-67C60.03-67 70.51-56.519 70.51-43.75C70.51-30.981 60.03-20.5 47.26-20.5C34.46-20.5 24.01-30.981 24.01-43.75Z"/>
   <path class="monochrome-2 multicolor-2:black hierarchical-2:primary SFSymbolsPreview000000" d="M49.25-33.75C49.88-36.005 50.71-36.687 52.4-38.075C52.65-38.286 52.93-38.513 53.19-38.736C53.2-38.741 53.21-38.744 53.21-38.749C53.27-38.825 53.31-38.876 53.35-38.925C53.55-39.174 53.71-39.38 53.84-39.654C53.01-40.097 52.23-40.76 51.57-41.658C51.08-41.534 50.66-41.424 50.31-41.333C49.96-41.244 49.68-41.171 49.48-41.122C49.36-41.095 49.28-41.069 49.16-41.115C49.02-41.171 48.92-41.308 48.93-41.466L49.14-49.656C49.14-49.67 49.14-49.683 49.14-49.696C49.19-50.224 49.31-50.731 49.49-51.222C49.67-51.713 49.91-52.184 50.2-52.636C50.98-53.864 51.96-54.738 53.11-55.297C54.25-55.852 55.56-56.092 57.01-56.056C58.26-56.026 59.47-55.717 60.55-55.103C61.55-54.53 62.44-53.69 63.13-52.562C63.39-52.145 63.61-51.707 63.8-51.249C63.98-50.799 64.13-50.331 64.24-49.847C64.25-49.813 64.26-49.778 64.26-49.741L64.26-41.88C64.26-41.765 64.27-41.658 64.21-41.554C64.09-41.34 63.75-41.288 63.59-41.525C63.42-41.763 63.2-41.962 62.94-42.129C62.75-42.254 62.53-42.362 62.29-42.453C61.53-41.21 60.52-40.281 59.41-39.697C59.51-39.409 59.65-39.191 59.82-38.921L59.9-38.804C60.48-38.54 61.05-38.204 61.59-37.709C62.15-37.195 62.67-36.517 63.13-35.58C63.42-34.98 63.64-34.369 63.83-33.75L63.05-33.75C62.89-34.264 62.7-34.768 62.46-35.257C62.05-36.105 61.58-36.713 61.09-37.167C60.68-37.544 60.24-37.819 59.79-38.038C59.52-37.695 59.19-37.398 58.82-37.158C58.13-36.708 57.33-36.476 56.52-36.474C55.72-36.472 54.92-36.702 54.23-37.176C54.1-37.268 53.97-37.368 53.85-37.476C53.69-37.616 53.53-37.769 53.38-37.931C53.2-37.776 53.03-37.638 52.87-37.507C51.37-36.27 50.6-35.637 50.03-33.75L49.25-33.75ZM46.58-33.75C46.51-34.021 46.43-34.262 46.34-34.479C45.81-35.714 44.5-36.277 43.21-36.829C42.99-36.923 42.77-37.016 42.55-37.119C42.52-37.083 42.49-37.047 42.46-37.011C42.28-36.796 42.07-36.604 41.84-36.438C41.2-35.976 40.38-35.711 39.52-35.67C38.68-35.629 37.8-35.808 37.05-36.236C36.68-36.449 36.33-36.723 36.04-37.061C35.84-36.963 35.62-36.866 35.41-36.767C34.17-36.205 32.77-35.572 32.26-34.515C32.15-34.282 32.06-34.027 32-33.75L31.26-33.75C31.27-33.782 31.27-33.815 31.28-33.847C31.36-34.197 31.47-34.523 31.62-34.823C32.24-36.114 33.76-36.805 35.11-37.417C35.41-37.552 35.7-37.684 35.96-37.814C36.14-38.046 36.28-38.297 36.4-38.566C36.49-38.796 36.57-39.038 36.61-39.293C36.34-39.458 36.08-39.649 35.83-39.863C34.82-40.756 34.12-41.485 33.66-42.328C33.2-43.184 33-44.133 33.03-45.452L33.1-49.617C33.1-49.658 33.11-49.697 33.12-49.733L32.23-50.013C32.1-52.829 33.74-54.514 35.77-55.323C36.5-55.618 35.27-57.228 36.97-56.61C39.24-55.785 44.27-54.657 45.46-53.238C46.43-52.085 46.47-51.459 46.45-49.955C46.44-49.467 46.37-49.038 46.14-48.878C46.04-48.806 45.91-48.776 45.77-48.788L45.77-45.176C45.77-43.365 45.12-41.853 44.12-40.734C43.56-40.113 42.9-39.603 42.15-39.231C42.2-38.999 42.26-38.777 42.33-38.565C42.43-38.312 42.54-38.071 42.68-37.842C42.93-37.728 43.21-37.607 43.49-37.487C44.91-36.878 46.36-36.259 47-34.756C47.12-34.461 47.23-34.128 47.32-33.75L46.58-33.75Z"/>
   <path class="monochrome-3 multicolor-3:custom hierarchical-3:primary SFSymbolsPreviewBF7E33" d="M37.2-39.792C37.44-39.668 37.68-39.566 37.93-39.486L37.94-39.483C38.4-39.342 38.88-39.274 39.36-39.274C40.13-39.274 40.91-39.448 41.63-39.776C42.38-40.112 43.04-40.599 43.58-41.206C44.47-42.202 45.05-43.552 45.05-45.176L45.05-48.829L45.05-48.829C45.04-49.057 45.01-49.267 44.94-49.456C44.88-49.638 44.8-49.799 44.68-49.936C44.24-50.45 43.82-50.429 43.23-50.399C43.17-50.397 43.12-50.394 43.04-50.391C40.69-50.287 39.14-50.29 37.89-50.399C36.73-50.499 35.83-50.688 34.77-50.966C34.67-50.73 34.55-50.502 34.42-50.284C34.24-49.996 34.04-49.724 33.82-49.471L33.75-45.442C33.72-44.253 33.89-43.409 34.29-42.666C34.7-41.911 35.36-41.235 36.31-40.397C36.56-40.177 36.83-39.989 37.11-39.835C37.14-39.826 37.17-39.811 37.2-39.792ZM37.96-38.734C37.73-38.794 37.5-38.87 37.28-38.961C37.22-38.728 37.15-38.504 37.06-38.289C36.95-38.017 36.8-37.759 36.63-37.514C36.82-37.303 37.04-37.122 37.27-36.972C37.91-36.564 38.67-36.372 39.42-36.39C40.17-36.408 40.9-36.636 41.47-37.066C41.62-37.181 41.76-37.31 41.89-37.453C41.93-37.498 41.96-37.545 42-37.593C41.87-37.824 41.75-38.067 41.66-38.324C41.59-38.522 41.53-38.724 41.48-38.929C40.75-38.669 40.01-38.539 39.29-38.55C38.84-38.556 38.39-38.617 37.96-38.734Z"/>
   <path class="monochrome-4 multicolor-4:custom hierarchical-4:primary SFSymbolsPreviewFFE4AF" d="M58.49-40.484C58.57-40.522 58.66-40.562 58.74-40.603C58.76-40.609 58.77-40.613 58.78-40.617C60.04-41.245 61.15-42.402 61.85-43.994C62.1-44.553 62.21-45.064 62.26-45.57C62.41-47.132 62.27-48.536 62.27-50.157C60.98-49.96 60.45-50.818 60.21-52.098C57.58-49.708 54.51-49.181 51.07-50.238C51.07-48.633 50.94-47.327 51.07-45.775C51.11-45.306 51.2-44.831 51.4-44.306C52.89-40.424 55.94-39.396 58.49-40.484ZM54.52-39.346C54.36-39.011 54.17-38.766 53.93-38.471C54.06-38.301 54.21-38.145 54.37-38.003C54.4-37.981 54.43-37.958 54.46-37.937C55.06-37.469 55.78-37.227 56.49-37.216C57.2-37.206 57.92-37.426 58.53-37.881C58.77-38.061 59-38.275 59.2-38.526L59.2-38.528C59.01-38.827 58.85-39.073 58.73-39.387C57.36-38.857 55.89-38.825 54.52-39.346Z"/>
   <path class="monochrome-5 multicolor-5:black hierarchical-5:primary SFSymbolsPreview000000" d="M55.1-42.797C55.06-42.825 55.02-42.86 55-42.901C54.97-42.942 54.95-42.987 54.94-43.035C54.93-43.082 54.94-43.131 54.95-43.179C54.96-43.226 54.98-43.271 55-43.311C55.12-43.478 55.35-43.519 55.52-43.403C55.9-43.142 56.27-43.013 56.63-43.013C56.99-43.014 57.36-43.144 57.74-43.403C57.91-43.518 58.14-43.477 58.25-43.309C58.28-43.27 58.3-43.225 58.31-43.177C58.32-43.13 58.32-43.081 58.31-43.034C58.3-42.986 58.29-42.941 58.26-42.9C58.23-42.86 58.2-42.825 58.16-42.797C57.66-42.453 57.15-42.278 56.63-42.277C56.11-42.277 55.6-42.449 55.1-42.797ZM37.78-41.974C37.7-42.026 37.65-42.107 37.63-42.199C37.61-42.292 37.63-42.389 37.68-42.468C37.79-42.634 38.01-42.68 38.17-42.573C38.58-42.308 38.98-42.165 39.35-42.16C39.71-42.156 40.07-42.283 40.42-42.556C40.46-42.585 40.5-42.606 40.55-42.618C40.59-42.631 40.64-42.634 40.69-42.628C40.73-42.623 40.78-42.608 40.82-42.584C40.86-42.561 40.9-42.53 40.93-42.493C40.99-42.418 41.01-42.323 41-42.229C40.99-42.135 40.94-42.049 40.86-41.991C40.38-41.614 39.87-41.439 39.34-41.447C38.82-41.454 38.31-41.636 37.78-41.974ZM54.14-47.774C54.57-47.774 54.92-47.424 54.92-46.993C54.92-46.561 54.57-46.212 54.14-46.212C53.7-46.212 53.35-46.561 53.35-46.993C53.35-47.424 53.7-47.774 54.14-47.774ZM59.29-47.774C59.72-47.774 60.07-47.424 60.07-46.993C60.07-46.561 59.72-46.212 59.29-46.212C58.86-46.212 58.5-46.561 58.5-46.993C58.5-47.424 58.86-47.774 59.29-47.774ZM36.44-46.454C36.87-46.454 37.22-46.108 37.22-45.682C37.22-45.255 36.87-44.91 36.44-44.91C36.02-44.91 35.67-45.255 35.67-45.682C35.67-46.108 36.02-46.454 36.44-46.454ZM42.3-46.454C42.72-46.454 43.07-46.108 43.07-45.682C43.07-45.255 42.72-44.91 42.3-44.91C41.87-44.91 41.52-45.255 41.52-45.682C41.52-46.108 41.87-46.454 42.3-46.454Z"/>
  </g>
  <g id="Regular-S" transform="matrix(1 0 0 1 1405.73 696)">
   <path class="SFSymbolsPreviewNone" d="M44.52-66.5C32-66.5 21.77-56.243 21.77-43.75C21.77-31.257 32-21 44.52-21C57.01-21 67.27-31.257 67.27-43.75C67.27-56.243 57.01-66.5 44.52-66.5ZM44.69 7.922C44.74 7.883 44.79 7.835 44.86 7.779C45.07 7.595 45.39 7.321 45.79 6.965C46.6 6.253 47.75 5.211 49.14 3.892C51.93 1.256 55.67-2.484 59.51-6.896C67.19-15.733 75.19-27.223 76.63-37.936L76.63-37.945L76.64-37.953C77.05-40.004 77.27-42.124 77.27-44.296C77.27-62.078 62.61-76.5 44.52-76.5C26.43-76.5 11.77-62.078 11.77-44.296C11.77-40.296 12.51-36.466 13.87-32.935L13.87-32.926L13.87-32.918C16.93-22.879 24.66-12.64 31.65-4.895C35.15-1.026 38.45 2.213 40.88 4.485C42.09 5.621 43.08 6.515 43.78 7.125C44.12 7.429 44.39 7.663 44.57 7.821C44.62 7.859 44.66 7.893 44.69 7.922ZM44.69 8.25L44.53 8.441L44.69 8.576L44.85 8.441L44.69 8.25Z"/>
   <path class="monochrome-0 multicolor-0:systemPurpleColor hierarchical-0:primary SFSymbolsPreviewAF52DE" d="M11.27-44.296C11.27-62.362 26.16-77 44.52-77C62.88-77 77.77-62.362 77.77-44.296C77.77-42.093 77.55-39.943 77.13-37.861C75.66-26.992 67.57-15.409 59.88-6.568C56.03-2.14 52.28 1.611 49.48 4.256C48.09 5.578 46.93 6.624 46.12 7.339C45.72 7.697 45.4 7.972 45.19 8.158C45.08 8.251 44.99 8.322 44.94 8.369L44.88 8.423L44.86 8.44L44.85 8.441C44.85 8.441 44.85 8.441 44.69 8.25C44.53 8.441 44.53 8.441 44.53 8.441L44.53 8.44L44.51 8.426L44.46 8.38C44.41 8.34 44.34 8.279 44.25 8.2C44.06 8.041 43.79 7.806 43.45 7.5C42.75 6.887 41.75 5.99 40.53 4.85C38.1 2.571 34.79-0.678 31.28-4.56C24.28-12.314 16.49-22.618 13.4-32.764C12.02-36.35 11.27-40.237 11.27-44.296Z"/>
   <path class="monochrome-1 multicolor-1:white hierarchical-1:primary SFSymbolsPreviewFFFFFF" d="M21.27-43.75C21.27-56.519 31.72-67 44.52-67C57.29-67 67.77-56.519 67.77-43.75C67.77-30.981 57.29-20.5 44.52-20.5C31.72-20.5 21.27-30.981 21.27-43.75Z"/>
   <path class="monochrome-2 multicolor-2:black hierarchical-2:primary SFSymbolsPreview000000" d="M46.51-33.75C47.14-36.005 47.97-36.687 49.66-38.075C49.91-38.286 50.19-38.513 50.45-38.736C50.46-38.741 50.47-38.744 50.47-38.749C50.53-38.825 50.57-38.876 50.61-38.925C50.81-39.174 50.97-39.38 51.1-39.654C50.27-40.097 49.49-40.76 48.83-41.658C48.34-41.534 47.92-41.424 47.57-41.333C47.22-41.244 46.94-41.171 46.74-41.122C46.62-41.095 46.54-41.069 46.42-41.115C46.28-41.171 46.18-41.308 46.19-41.466L46.4-49.656C46.4-49.67 46.4-49.683 46.4-49.696C46.45-50.224 46.57-50.731 46.75-51.222C46.93-51.713 47.17-52.184 47.46-52.636C48.24-53.864 49.22-54.738 50.37-55.297C51.51-55.852 52.82-56.092 54.27-56.056C55.52-56.026 56.73-55.717 57.81-55.103C58.81-54.53 59.7-53.69 60.39-52.562C60.65-52.145 60.87-51.707 61.06-51.249C61.24-50.799 61.39-50.331 61.5-49.847C61.51-49.813 61.52-49.778 61.52-49.741L61.52-41.88C61.52-41.765 61.53-41.658 61.47-41.554C61.35-41.34 61.01-41.288 60.85-41.525C60.68-41.763 60.46-41.962 60.2-42.129C60.01-42.254 59.79-42.362 59.55-42.453C58.79-41.21 57.78-40.281 56.67-39.697C56.77-39.409 56.91-39.191 57.08-38.921L57.16-38.804C57.74-38.54 58.31-38.204 58.85-37.709C59.41-37.195 59.93-36.517 60.39-35.58C60.68-34.98 60.9-34.369 61.09-33.75L60.31-33.75C60.15-34.264 59.96-34.768 59.72-35.257C59.31-36.105 58.84-36.713 58.35-37.167C57.94-37.544 57.5-37.819 57.05-38.038C56.78-37.695 56.45-37.398 56.08-37.158C55.39-36.708 54.59-36.476 53.78-36.474C52.98-36.472 52.18-36.702 51.49-37.176C51.36-37.268 51.23-37.368 51.11-37.476C50.95-37.616 50.79-37.769 50.64-37.931C50.46-37.776 50.29-37.638 50.13-37.507C48.63-36.27 47.86-35.637 47.29-33.75L46.51-33.75ZM43.84-33.75C43.77-34.021 43.69-34.262 43.6-34.479C43.07-35.714 41.76-36.277 40.47-36.829C40.25-36.923 40.03-37.016 39.81-37.119C39.78-37.083 39.75-37.047 39.72-37.011C39.54-36.796 39.33-36.604 39.1-36.438C38.46-35.976 37.64-35.711 36.78-35.67C35.94-35.629 35.06-35.808 34.31-36.236C33.94-36.449 33.59-36.723 33.3-37.061C33.1-36.963 32.88-36.866 32.67-36.767C31.43-36.205 30.03-35.572 29.52-34.515C29.41-34.282 29.32-34.027 29.26-33.75L28.52-33.75C28.53-33.782 28.53-33.815 28.54-33.847C28.62-34.197 28.73-34.523 28.88-34.823C29.5-36.114 31.02-36.805 32.37-37.417C32.67-37.552 32.96-37.684 33.22-37.814C33.4-38.046 33.54-38.297 33.66-38.566C33.75-38.796 33.83-39.038 33.87-39.293C33.6-39.458 33.34-39.649 33.09-39.863C32.08-40.756 31.38-41.485 30.92-42.328C30.46-43.184 30.26-44.133 30.29-45.452L30.36-49.617C30.36-49.658 30.37-49.697 30.38-49.733L29.49-50.013C29.36-52.829 31-54.514 33.03-55.323C33.76-55.618 32.53-57.228 34.23-56.61C36.5-55.785 41.53-54.657 42.72-53.238C43.69-52.085 43.73-51.459 43.71-49.955C43.7-49.467 43.63-49.038 43.4-48.878C43.3-48.806 43.17-48.776 43.03-48.788L43.03-45.176C43.03-43.365 42.38-41.853 41.38-40.734C40.82-40.113 40.16-39.603 39.41-39.231C39.46-38.999 39.52-38.777 39.59-38.565C39.69-38.312 39.8-38.071 39.94-37.842C40.19-37.728 40.47-37.607 40.75-37.487C42.17-36.878 43.62-36.259 44.26-34.756C44.38-34.461 44.49-34.128 44.58-33.75L43.84-33.75Z"/>
   <path class="monochrome-3 multicolor-3:custom hierarchical-3:primary SFSymbolsPreviewBF7E33" d="M34.46-39.792C34.7-39.668 34.94-39.566 35.19-39.486L35.2-39.483C35.66-39.342 36.14-39.274 36.62-39.274C37.39-39.274 38.17-39.448 38.89-39.776C39.64-40.112 40.3-40.599 40.84-41.206C41.73-42.202 42.31-43.552 42.31-45.176L42.31-48.829L42.31-48.829C42.3-49.057 42.27-49.267 42.2-49.456C42.14-49.638 42.06-49.799 41.94-49.936C41.5-50.45 41.08-50.429 40.49-50.399C40.43-50.397 40.38-50.394 40.3-50.391C37.95-50.287 36.4-50.29 35.15-50.399C33.99-50.499 33.09-50.688 32.03-50.966C31.93-50.73 31.81-50.502 31.68-50.284C31.5-49.996 31.3-49.724 31.08-49.471L31.01-45.442C30.98-44.253 31.15-43.409 31.55-42.666C31.96-41.911 32.62-41.235 33.57-40.397C33.82-40.177 34.09-39.989 34.37-39.835C34.4-39.826 34.43-39.811 34.46-39.792ZM35.22-38.734C34.99-38.794 34.76-38.87 34.54-38.961C34.48-38.728 34.41-38.504 34.32-38.289C34.21-38.017 34.06-37.759 33.89-37.514C34.08-37.303 34.3-37.122 34.53-36.972C35.17-36.564 35.93-36.372 36.68-36.39C37.43-36.408 38.16-36.636 38.73-37.066C38.88-37.181 39.02-37.31 39.15-37.453C39.19-37.498 39.22-37.545 39.26-37.593C39.13-37.824 39.01-38.067 38.92-38.324C38.85-38.522 38.79-38.724 38.74-38.929C38.01-38.669 37.27-38.539 36.55-38.55C36.1-38.556 35.65-38.617 35.22-38.734Z"/>
   <path class="monochrome-4 multicolor-4:custom hierarchical-4:primary SFSymbolsPreviewFFE4AF" d="M55.75-40.484C55.83-40.522 55.92-40.562 56-40.603C56.02-40.609 56.03-40.613 56.04-40.617C57.3-41.245 58.41-42.402 59.11-43.994C59.36-44.553 59.47-45.064 59.52-45.57C59.67-47.132 59.53-48.536 59.53-50.157C58.24-49.96 57.71-50.818 57.47-52.098C54.84-49.708 51.77-49.181 48.33-50.238C48.33-48.633 48.2-47.327 48.33-45.775C48.37-45.306 48.46-44.831 48.66-44.306C50.15-40.424 53.2-39.396 55.75-40.484ZM51.78-39.346C51.62-39.011 51.43-38.766 51.19-38.471C51.32-38.301 51.47-38.145 51.63-38.003C51.66-37.981 51.69-37.958 51.72-37.937C52.32-37.469 53.04-37.227 53.75-37.216C54.46-37.206 55.18-37.426 55.79-37.881C56.03-38.061 56.26-38.275 56.46-38.526L56.46-38.528C56.27-38.827 56.11-39.073 55.99-39.387C54.62-38.857 53.15-38.825 51.78-39.346Z"/>
   <path class="monochrome-5 multicolor-5:black hierarchical-5:primary SFSymbolsPreview000000" d="M52.36-42.797C52.32-42.825 52.28-42.86 52.26-42.901C52.23-42.942 52.21-42.987 52.2-43.035C52.19-43.082 52.2-43.131 52.21-43.179C52.22-43.226 52.24-43.271 52.26-43.311C52.38-43.478 52.61-43.519 52.78-43.403C53.16-43.142 53.53-43.013 53.89-43.013C54.25-43.014 54.62-43.144 55-43.403C55.17-43.518 55.4-43.477 55.51-43.309C55.54-43.27 55.56-43.225 55.57-43.177C55.58-43.13 55.58-43.081 55.57-43.034C55.56-42.986 55.55-42.941 55.52-42.9C55.49-42.86 55.46-42.825 55.42-42.797C54.92-42.453 54.41-42.278 53.89-42.277C53.37-42.277 52.86-42.449 52.36-42.797ZM35.04-41.974C34.96-42.026 34.91-42.107 34.89-42.199C34.87-42.292 34.89-42.389 34.94-42.468C35.05-42.634 35.27-42.68 35.43-42.573C35.84-42.308 36.24-42.165 36.61-42.16C36.97-42.156 37.33-42.283 37.68-42.556C37.72-42.585 37.76-42.606 37.81-42.618C37.85-42.631 37.9-42.634 37.95-42.628C37.99-42.623 38.04-42.608 38.08-42.584C38.12-42.561 38.16-42.53 38.19-42.493C38.25-42.418 38.27-42.323 38.26-42.229C38.25-42.135 38.2-42.049 38.12-41.991C37.64-41.614 37.13-41.439 36.6-41.447C36.08-41.454 35.57-41.636 35.04-41.974ZM51.4-47.774C51.83-47.774 52.18-47.424 52.18-46.993C52.18-46.561 51.83-46.212 51.4-46.212C50.96-46.212 50.61-46.561 50.61-46.993C50.61-47.424 50.96-47.774 51.4-47.774ZM56.55-47.774C56.98-47.774 57.33-47.424 57.33-46.993C57.33-46.561 56.98-46.212 56.55-46.212C56.12-46.212 55.76-46.561 55.76-46.993C55.76-47.424 56.12-47.774 56.55-47.774ZM33.7-46.454C34.13-46.454 34.48-46.108 34.48-45.682C34.48-45.255 34.13-44.91 33.7-44.91C33.28-44.91 32.93-45.255 32.93-45.682C32.93-46.108 33.28-46.454 33.7-46.454ZM39.56-46.454C39.98-46.454 40.33-46.108 40.33-45.682C40.33-45.255 39.98-44.91 39.56-44.91C39.13-44.91 38.78-45.255 38.78-45.682C38.78-46.108 39.13-46.454 39.56-46.454Z"/>
  </g>
  <g id="Ultralight-S" transform="matrix(1 0 0 1 517.797 696)">
   <path class="SFSymbolsPreviewNone" d="M42.2-66.75C29.681-66.75 19.453-56.493 19.453-44C19.453-31.507 29.683-21.25 42.202-21.25C54.695-21.25 64.953-31.507 64.953-44C64.953-56.493 54.693-66.75 42.2-66.75ZM42.376 7.672C42.422 7.633 42.478 7.585 42.542 7.529C42.757 7.345 43.072 7.071 43.474 6.715C44.278 6.003 45.431 4.961 46.824 3.642C49.61 1.006 53.354-2.734 57.189-7.146C64.869-15.983 72.87-27.473 74.316-38.186L74.317-38.195L74.319-38.203C74.734-40.254 74.953-42.374 74.953-44.546C74.953-62.328 60.293-76.75 42.202-76.75C24.111-76.75 9.453-62.328 9.453-44.546C9.453-40.546 10.194-36.716 11.549-33.185L11.553-33.176L11.555-33.168C14.612-23.129 22.345-12.89 29.337-5.145C32.829-1.276 36.13 1.963 38.558 4.235C39.772 5.371 40.767 6.265 41.459 6.875C41.805 7.179 42.074 7.413 42.258 7.571C42.302 7.609 42.342 7.643 42.376 7.672ZM42.376 8L42.215 8.191L42.376 8.326L42.537 8.191L42.376 8Z"/>
   <path class="monochrome-0 multicolor-0:systemPurpleColor hierarchical-0:primary SFSymbolsPreviewAF52DE" d="M8.953-44.546C8.953-62.612 23.843-77.25 42.202-77.25C60.561-77.25 75.453-62.612 75.453-44.546C75.453-42.343 75.231-40.193 74.811-38.111C73.34-27.242 65.25-15.659 57.566-6.818C53.718-2.39 49.962 1.361 47.167 4.006C45.77 5.328 44.613 6.374 43.805 7.089C43.401 7.447 43.085 7.722 42.869 7.908C42.761 8.001 42.678 8.072 42.622 8.119L42.559 8.173L42.538 8.19L42.537 8.191C42.537 8.191 42.537 8.191 42.376 8C42.215 8.191 42.215 8.191 42.215 8.191L42.214 8.19L42.197 8.176L42.143 8.13C42.095 8.09 42.024 8.029 41.932 7.95C41.747 7.791 41.476 7.556 41.128 7.25C40.433 6.637 39.434 5.74 38.216 4.6C35.781 2.321 32.47-0.928 28.966-4.81C21.966-12.564 14.171-22.868 11.079-33.014C9.705-36.6 8.953-40.487 8.953-44.546Z"/>
   <path class="monochrome-1 multicolor-1:white hierarchical-1:primary SFSymbolsPreviewFFFFFF" d="M18.953-44C18.953-56.769 29.405-67.25 42.2-67.25C54.969-67.25 65.453-56.769 65.453-44C65.453-31.231 54.971-20.75 42.202-20.75C29.407-20.75 18.953-31.231 18.953-44Z"/>
   <path class="monochrome-2 multicolor-2:black hierarchical-2:primary SFSymbolsPreview000000" d="M44.196-34C44.826-36.255 45.655-36.937 47.342-38.325C47.597-38.536 47.873-38.763 48.138-38.986C48.143-38.991 48.149-38.994 48.154-38.999C48.213-39.075 48.254-39.126 48.292-39.175C48.488-39.424 48.651-39.63 48.782-39.904C47.951-40.347 47.178-41.01 46.517-41.908C46.021-41.784 45.601-41.674 45.249-41.583C44.907-41.494 44.628-41.421 44.425-41.372C44.308-41.345 44.223-41.319 44.104-41.365C43.965-41.421 43.867-41.558 43.871-41.716L44.083-49.906C44.083-49.92 44.083-49.933 44.084-49.946C44.137-50.474 44.257-50.981 44.436-51.472C44.616-51.963 44.854-52.434 45.143-52.886C45.927-54.114 46.904-54.988 48.055-55.547C49.197-56.102 50.504-56.342 51.957-56.306C53.206-56.276 54.415-55.967 55.491-55.353C56.495-54.78 57.383-53.94 58.076-52.812C58.332-52.395 58.553-51.957 58.739-51.499C58.922-51.049 59.071-50.581 59.188-50.097C59.197-50.063 59.202-50.028 59.202-49.991L59.202-42.13C59.202-42.015 59.214-41.908 59.153-41.804C59.03-41.59 58.696-41.538 58.529-41.775C58.361-42.013 58.144-42.212 57.888-42.379C57.694-42.504 57.475-42.612 57.237-42.703C56.469-41.46 55.465-40.531 54.354-39.947C54.454-39.659 54.593-39.441 54.765-39.171L54.839-39.054C55.423-38.79 55.995-38.454 56.533-37.959C57.092-37.445 57.612-36.767 58.071-35.83C58.364-35.23 58.587-34.619 58.774-34L57.998-34C57.834-34.514 57.643-35.018 57.404-35.507C56.989-36.355 56.526-36.963 56.032-37.417C55.621-37.794 55.184-38.069 54.734-38.288C54.459-37.945 54.13-37.648 53.761-37.408C53.072-36.958 52.269-36.726 51.467-36.724C50.664-36.722 49.861-36.952 49.176-37.426C49.043-37.518 48.916-37.618 48.795-37.726C48.628-37.866 48.472-38.019 48.327-38.181C48.141-38.026 47.973-37.888 47.814-37.757C46.311-36.52 45.542-35.887 44.97-34L44.196-34ZM41.522-34C41.452-34.271 41.371-34.512 41.279-34.729C40.752-35.964 39.44-36.527 38.152-37.079C37.934-37.173 37.717-37.266 37.489-37.369C37.46-37.333 37.43-37.297 37.4-37.261C37.223-37.046 37.016-36.854 36.785-36.688C36.145-36.226 35.319-35.961 34.467-35.92C33.619-35.879 32.74-36.058 31.991-36.486C31.618-36.699 31.277-36.973 30.987-37.311C30.781-37.213 30.568-37.116 30.351-37.017C29.113-36.455 27.718-35.822 27.207-34.765C27.095-34.532 27.005-34.277 26.938-34L26.203-34C26.209-34.032 26.217-34.065 26.224-34.097C26.304-34.447 26.416-34.773 26.561-35.073C27.185-36.364 28.705-37.055 30.053-37.667C30.352-37.802 30.643-37.934 30.904-38.064C31.081-38.296 31.227-38.547 31.341-38.816C31.437-39.046 31.51-39.288 31.558-39.543C31.28-39.708 31.019-39.899 30.777-40.113C29.766-41.006 29.059-41.735 28.604-42.578C28.142-43.434 27.948-44.383 27.973-45.702L28.046-49.867C28.046-49.908 28.054-49.947 28.067-49.983L27.174-50.263C27.044-53.079 28.682-54.764 30.709-55.573C31.448-55.868 30.211-57.478 31.91-56.86C34.179-56.035 39.216-54.907 40.408-53.488C41.377-52.335 41.415-51.709 41.393-50.205C41.387-49.717 41.31-49.288 41.083-49.128C40.98-49.056 40.854-49.026 40.709-49.038L40.709-45.426C40.709-43.615 40.059-42.103 39.061-40.984C38.508-40.363 37.841-39.853 37.097-39.481C37.14-39.249 37.201-39.027 37.277-38.815C37.369-38.562 37.486-38.321 37.628-38.092C37.874-37.978 38.154-37.857 38.436-37.737C39.854-37.128 41.299-36.509 41.939-35.006C42.064-34.711 42.172-34.378 42.258-34L41.522-34Z"/>
   <path class="monochrome-3 multicolor-3:custom hierarchical-3:primary SFSymbolsPreviewBF7E33" d="M32.148-40.042C32.385-39.918 32.628-39.816 32.875-39.736L32.885-39.733C33.343-39.592 33.82-39.524 34.302-39.524C35.071-39.524 35.851-39.698 36.575-40.026C37.318-40.362 37.982-40.849 38.524-41.456C39.411-42.452 39.989-43.802 39.989-45.426L39.989-49.079L39.99-49.079C39.982-49.307 39.949-49.517 39.887-49.706C39.827-49.888 39.741-50.049 39.624-50.186C39.184-50.7 38.766-50.679 38.17-50.649C38.117-50.647 38.064-50.644 37.987-50.641C35.629-50.537 34.084-50.54 32.831-50.649C31.676-50.749 30.768-50.938 29.712-51.216C29.612-50.98 29.495-50.752 29.361-50.534C29.185-50.246 28.984-49.974 28.76-49.721L28.69-45.692C28.667-44.503 28.835-43.659 29.236-42.916C29.644-42.161 30.303-41.485 31.252-40.647C31.502-40.427 31.77-40.239 32.051-40.085C32.086-40.076 32.118-40.061 32.148-40.042ZM32.902-38.984C32.67-39.044 32.443-39.12 32.222-39.211C32.167-38.978 32.095-38.754 32.004-38.539C31.89-38.267 31.745-38.009 31.572-37.764C31.763-37.553 31.98-37.372 32.215-37.222C32.849-36.814 33.614-36.622 34.365-36.64C35.112-36.658 35.843-36.886 36.415-37.316C36.567-37.431 36.707-37.56 36.833-37.703C36.871-37.748 36.907-37.795 36.941-37.843C36.809-38.074 36.696-38.317 36.603-38.574C36.531-38.772 36.472-38.974 36.427-39.179C35.695-38.919 34.955-38.789 34.229-38.8C33.779-38.806 33.335-38.867 32.902-38.984Z"/>
   <path class="monochrome-4 multicolor-4:custom hierarchical-4:primary SFSymbolsPreviewFFE4AF" d="M53.432-40.734C53.516-40.772 53.601-40.812 53.688-40.853C53.699-40.859 53.71-40.863 53.721-40.867C54.982-41.495 56.095-42.652 56.796-44.244C57.043-44.803 57.156-45.314 57.203-45.82C57.35-47.382 57.215-48.786 57.215-50.407C55.926-50.21 55.389-51.068 55.152-52.348C52.519-49.958 49.453-49.431 46.016-50.488C46.016-48.883 45.888-47.577 46.014-46.025C46.052-45.556 46.145-45.081 46.346-44.556C47.834-40.674 50.886-39.646 53.432-40.734ZM49.459-39.596C49.302-39.261 49.109-39.016 48.876-38.721C49.007-38.551 49.153-38.395 49.315-38.253C49.342-38.231 49.371-38.208 49.399-38.187C50.007-37.719 50.72-37.477 51.433-37.466C52.144-37.456 52.859-37.676 53.472-38.131C53.713-38.311 53.938-38.525 54.14-38.776L54.139-38.778C53.949-39.077 53.793-39.323 53.675-39.637C52.308-39.107 50.829-39.075 49.459-39.596Z"/>
   <path class="monochrome-5 multicolor-5:black hierarchical-5:primary SFSymbolsPreview000000" d="M50.04-43.047C50-43.075 49.966-43.11 49.939-43.151C49.913-43.192 49.895-43.237 49.886-43.285C49.878-43.332 49.879-43.381 49.889-43.429C49.899-43.476 49.919-43.521 49.947-43.561C50.064-43.728 50.295-43.769 50.463-43.653C50.84-43.392 51.21-43.263 51.571-43.263C51.934-43.264 52.305-43.394 52.681-43.653C52.849-43.768 53.08-43.727 53.195-43.559C53.223-43.52 53.242-43.475 53.253-43.427C53.263-43.38 53.264-43.331 53.255-43.284C53.246-43.236 53.228-43.191 53.202-43.15C53.175-43.11 53.141-43.075 53.101-43.047C52.598-42.703 52.089-42.528 51.571-42.527C51.054-42.527 50.542-42.699 50.04-43.047ZM32.726-42.224C32.647-42.276 32.591-42.357 32.571-42.449C32.551-42.542 32.569-42.639 32.621-42.718C32.728-42.884 32.951-42.93 33.117-42.823C33.526-42.558 33.918-42.415 34.292-42.41C34.653-42.406 35.011-42.533 35.366-42.806C35.403-42.835 35.445-42.856 35.491-42.868C35.536-42.881 35.584-42.884 35.631-42.878C35.678-42.873 35.723-42.858 35.764-42.834C35.805-42.811 35.841-42.78 35.87-42.743C35.928-42.668 35.954-42.573 35.943-42.479C35.931-42.385 35.882-42.299 35.807-42.241C35.319-41.864 34.811-41.689 34.283-41.697C33.767-41.704 33.248-41.886 32.726-42.224ZM49.081-48.024C49.514-48.024 49.866-47.674 49.866-47.243C49.866-46.811 49.514-46.462 49.081-46.462C48.648-46.462 48.296-46.811 48.296-47.243C48.296-47.674 48.648-48.024 49.081-48.024ZM54.233-48.024C54.666-48.024 55.017-47.674 55.017-47.243C55.017-46.811 54.666-46.462 54.233-46.462C53.799-46.462 53.448-46.811 53.448-47.243C53.448-47.674 53.799-48.024 54.233-48.024ZM31.386-46.704C31.815-46.704 32.162-46.358 32.162-45.932C32.162-45.505 31.815-45.16 31.386-45.16C30.958-45.16 30.611-45.505 30.611-45.932C30.611-46.358 30.958-46.704 31.386-46.704ZM37.239-46.704C37.667-46.704 38.015-46.358 38.015-45.932C38.015-45.505 37.667-45.16 37.239-45.16C36.81-45.16 36.463-45.505 36.463-45.932C36.463-46.358 36.81-46.704 37.239-46.704Z"/>
  </g>
 </g>
</svg>
